<?xml version="1.0" encoding="UTF-8" standalone="no"?>
<svg
   xmlns:dc="http://purl.org/dc/elements/1.1/"
   xmlns:cc="http://creativecommons.org/ns#"
   xmlns:rdf="http://www.w3.org/1999/02/22-rdf-syntax-ns#"
   xmlns:svg="http://www.w3.org/2000/svg"
   xmlns="http://www.w3.org/2000/svg"
   xmlns:sodipodi="http://sodipodi.sourceforge.net/DTD/sodipodi-0.dtd"
   xmlns:inkscape="http://www.inkscape.org/namespaces/inkscape"
   width="1800"
   height="1375"
   version="1.1"
   id="svg848"
   sodipodi:docname="US7036E145AVARA.svg"
   inkscape:version="0.92.2 (5c3e80d, 2017-08-06)">
  <metadata
     id="metadata854">
    <rdf:RDF>
      <cc:Work
         rdf:about="">
        <dc:format>image/svg+xml</dc:format>
        <dc:type
           rdf:resource="http://purl.org/dc/dcmitype/StillImage" />
        <dc:title></dc:title>
      </cc:Work>
    </rdf:RDF>
  </metadata>
  <defs
     id="defs852" />
  <sodipodi:namedview
     pagecolor="#ffffff"
     bordercolor="#666666"
     borderopacity="1"
     objecttolerance="10"
     gridtolerance="10"
     guidetolerance="10"
     inkscape:pageopacity="0"
     inkscape:pageshadow="2"
     inkscape:window-width="1920"
     inkscape:window-height="1017"
     id="namedview850"
     showgrid="false"
     inkscape:zoom="0.25520752"
     inkscape:cx="1089.3088"
     inkscape:cy="655.70302"
     inkscape:window-x="-8"
     inkscape:window-y="-8"
     inkscape:window-maximized="1"
     inkscape:current-layer="svg848" />
  <path
     id="path846"
     style="fill:#000000;stroke:none;stroke-width:76.14385986"
     d="m 471.04601,198.57895 c -18.26209,0 -27.39318,6.62452 -27.39318,19.82025 2.6079,9.55606 10.98561,14.33789 25.1335,14.33789 4.50159,0 9.5873,-0.76144 15.25726,-1.44673 23.48971,-4.03563 40.96382,-10.59923 52.42218,-19.76695 -8.02087,-4.56863 -25.49483,-8.59664 -52.42218,-12.03072 -4.75211,-0.76145 -9.08429,-0.91374 -12.99758,-0.91374 z M 596.6224,55.11631 c 28.64591,54.99871 43.54184,97.96669 44.68765,128.90394 v 10.31749 c 0,16.0359 -8.59377,36.09219 -25.78132,60.15365 22.9168,46.98076 47.26582,88.79897 73.04714,125.46985 25.78147,36.66327 61.58893,74.47631 107.42253,113.43912 45.83353,38.95517 98.54212,58.4328 158.1257,58.4328 59.5836,0 130.9121,-13.74395 213.9854,-41.24713 69.9564,-23.15534 125.2868,-34.73682 165.9911,-34.73682 7.6321,0 14.7499,0.76143 21.3536,1.2183 41.8231,5.17778 81.0682,37.5313 117.7349,97.1139 36.6669,59.58249 73.3338,138.07169 110.0006,235.46729 36.6668,97.3955 75.0525,198.2328 115.1568,302.5043 40.1043,104.2713 56.7189,180.4685 49.844,228.5914 -58.4378,-79.0601 -143.8028,-287.0319 -256.0951,-623.9075 0,-50.4148 -12.6041,-81.3521 -37.8126,-92.8117 v 32.658 c 20.625,20.6198 17.1876,40.6761 -10.3126,60.1537 h -426.252 c 16.4035,-15.4419 38.0887,-23.1554 65.0556,-23.1554 5.0566,0 10.2983,0 15.726,0.8376 34.3752,3.4265 65.3128,5.1778 92.8129,5.1778 28.646,0 67.0317,-0.7614 115.1569,-1.7513 v -5.1778 c -48.1252,-5.7107 -79.3494,-21.1984 -93.6723,-46.4096 -14.3231,-25.2036 -7.1614,-58.4328 21.4844,-99.68756 v 0 C 1085.223,619.0073 978.09898,655.1756 912.90969,655.1756 c -2.96352,0 -5.83946,-0.069 -8.62959,0 -64.16696,-3.4265 -120.31312,-6.5484 -168.43833,-9.4571 h -7.70748 c -44.89662,0 -84.15057,23.8559 -117.76191,71.5601 l -333.43917,1.7513 c -0.9167,-20.1706 17.05021,-30.252 53.90043,-30.252 9.21248,0 19.60529,0.7614 31.17828,1.9036 16.32084,1.7513 32.89234,2.665 49.71459,2.665 42.82017,0 87.26454,-5.7869 133.33311,-17.277 11.45844,-17.1933 27.78659,-53.2855 48.9846,-108.28423 21.19802,-54.99868 23.7762,-91.38022 7.73431,-109.14458 -16.04174,-17.75675 -26.92712,-43.53906 -32.65631,-77.33932 -5.7291,-33.80025 -13.46363,-56.43782 -23.20329,-67.88986 -8.11629,-9.54844 -18.81876,-14.32266 -32.10733,-14.32266 -2.65744,0 -5.41914,0 -8.28343,0.76144 -3.12493,0.76143 -6.31618,0.76143 -9.57396,0.76143 -14.65913,0 -30.66063,-4.1879 -48.00442,-12.65511 -11.22247,-5.48235 -24.85363,-8.19307 -40.89331,-8.19307 -14.25764,0 -30.41835,2.13202 -48.4822,6.47222 -25.5904,6.09151 -43.41457,9.16773 -53.47249,9.16773 -5.02847,0 -8.11629,-0.76144 -9.2621,-2.28432 -3.43787,-4.56863 -7.91508,-4.3402 1.25182,-6.62452 9.16668,-2.28431 80.2718,-16.75165 88.86565,-16.75165 0.94422,0 1.87769,0.008 2.79066,0.008 7.39889,0 13.4455,-0.76143 12.6784,-9.46468 -0.35782,-4.11176 -1.49166,-5.5585 -3.67772,-5.5585 -2.78609,0 -7.27481,2.28432 -14.01619,4.26406 -10.09367,2.89347 -68.32703,19.27962 -90.21532,19.27962 -4.20162,0 -7.06385,-0.76143 -7.98962,-2.05588 -9.49722,-1.29444 -18.13062,-26.71126 -8.59393,-29.49052 46.97949,-12.6018 84.79214,-22.91169 113.43805,-30.93724 28.64606,-8.01795 46.97949,-17.18567 55.00043,-27.49555 8.02072,-10.3175 44.11467,-15.47244 108.28162,-15.47244 27.50026,0 40.6774,-26.92447 39.53152,-80.78101 v 0 c 29.79179,71.04221 29.21889,113.43912 -1.71856,127.1907 l 10.31241,15.46482 c 18.33312,-19.4776 27.4998,-34.94242 27.4998,-46.40207 -1.14604,-33.22918 -13.17715,-77.34693 -36.09388,-132.34564 z m 0,-44.68883 -24.06268,1.75131 v 79.06017 c 0,27.50316 -5.72903,44.11775 -17.18755,49.84376 -67.60452,0 -107.99528,6.85296 -121.1725,20.62738 -13.17715,13.75158 -30.65111,24.35081 -52.4221,31.79767 -21.771,7.4621 -52.99508,15.46482 -93.67233,24.06146 -40.67733,8.59665 -56.43258,20.9091 -47.26582,36.95262 2.29191,8.01795 10.88538,17.75675 25.78131,29.2164 0.85124,22.13502 15.13913,33.19872 42.86369,33.19872 9.59705,0 20.80406,-1.29445 33.62102,-3.95948 23.00498,-4.72092 42.77581,-7.15753 59.31248,-7.15753 19.29282,0 34.18357,3.27419 44.67248,9.71596 16.36253,10.10429 32.52301,15.16025 48.48137,15.16025 3.03965,0 6.07169,0 9.09694,-0.76144 h 3.46455 c 16.91911,0 27.79558,16.11203 32.62962,48.33612 5.15643,34.37895 13.75005,63.02427 25.7814,85.93596 12.03126,22.9193 -5.44277,78.49672 -52.42218,166.72459 -36.17588,15.7694 -73.85341,23.6503 -113.0329,23.6503 -9.21865,0 -18.52038,-0.7615 -27.90533,-1.2944 -32.84722,-3.0459 -57.80092,-4.5687 -74.86119,-4.5687 -8.53029,0 -15.08708,0.7615 -19.67045,1.1422 -33.22936,20.6274 -49.844,53.8565 -49.844,99.6875 h 409.06448 c 34.50998,-43.1355 66.48249,-64.7071 95.91752,-64.7071 h 5.48919 c 30.93767,2.8935 70.18262,5.1779 117.73493,6.853 7.1332,0 14.20132,0.7614 21.20526,0.7614 39.68898,0 77.30828,-4.1117 112.85798,-12.419 41.82311,-9.7388 103.41201,-32.9398 184.76641,-69.6107 v 0 c -4.5831,24.0614 -2.8645,41.8258 5.1565,53.2854 -13.9335,5.8631 -33.851,8.7946 -59.7526,8.7946 -14.5694,0 -31.0323,-0.9137 -49.3886,-2.7412 -7.06,-0.7613 -13.7303,-1.066 -20.0106,-1.066 -39.0773,0 -63.05822,13.8202 -71.9429,41.4604 v 39.5339 h 469.221 c 128.5201,421.0146 228.6517,631.5219 300.3942,631.5219 2.4541,0 4.8755,0 7.2634,-0.7615 60.7292,-12.6018 49.844,-132.3456 -32.6566,-359.2239 -82.5004,-226.8706 -150.6778,-380.4146 -204.5322,-460.62453 -53.8544,-80.20998 -105.1307,-123.46731 -153.8289,-129.7644 -8.928,-1.14216 -18.3759,-1.75131 -28.3437,-1.75131 -44.4023,0 -99.1213,11.46726 -164.1573,34.39418 -79.6357,28.06663 -151.5371,42.10755 -215.70403,42.10755 -63.02115,0 -117.44853,-24.06146 -163.28205,-72.19199 -45.83361,-48.12291 -89.37545,-107.1344 -130.62567,-177.02686 3.43719,-28.64532 5.1565,-51.56462 5.1565,-68.75029 0,-48.13053 -24.0626,-107.14202 -72.18782,-177.03447 z m 510.5422,737.99392 -86.9513,-0.3736 H 536.82267 l -92.846,1.5005 H 228.80823 c -63.8626,-9.8277 -87.93309,-49.3743 -72.21305,-118.6398 15.71997,-69.26556 32.91403,-123.05627 51.58159,-161.37187 18.66755,-38.32067 28.00132,-74.18246 28.00132,-107.58423 0,-33.40685 -13.26467,-57.72409 -39.7922,-72.95286 -26.52754,-15.22877 -58.21269,-25.05357 -95.05651,-29.47499 -7.53619,-0.91372 -14.733617,-1.37097 -21.591562,-1.37097 -26.669945,0 -48.210608,6.83842 -64.622882,20.51386 -20.6324965,17.19328 -20.1413464,32.66708 1.473675,46.42374 18.913152,12.03581 35.569696,18.05475 49.969489,18.05475 h 6.033136 c -19.650021,21.6147 -27.755883,57.475 -24.317125,107.58273 3.438758,50.10772 7.613771,101.44099 12.526237,154.00054 4.912523,52.5647 20.141839,97.2698 45.686902,134.1134 25.54502,36.8434 67.79188,61.1606 126.742,72.9528 h 436.2316 v 562.7434 h 61.89732 V 811.7954 H 1434.694 v -63.374 z M 82.628603,280.52516 c 18.631757,0 39.356277,4.05564 62.175677,12.16749 44.21257,15.72118 65.58309,38.07187 64.10933,67.05222 -1.47374,28.98543 -11.5443,66.32042 -30.21182,112.00674 -18.66756,45.68633 -33.16016,97.02338 -43.47639,154.00939 -6.43381,35.5389 -12.9631,53.3084 -19.58797,53.3084 -3.99775,0 -8.03018,-6.47 -12.09753,-19.4094 -10.807567,-34.3916 -17.685481,-86.70999 -20.632939,-156.95527 -2.947535,-70.25032 -1.228422,-113.97271 5.157863,-131.166 6.386225,-17.19328 16.456786,-28.49277 30.211826,-33.89899 3.87963,-1.52287 7.9157,-2.28345 12.10795,-2.28345 10.67123,0 22.35568,4.93637 35.05262,14.80969 l 11.7894,-10.30977 c -8.84251,-9.82763 -19.40423,-16.45947 -31.6855,-19.8961 -6.61297,-1.82745 -15.00521,-2.74193 -25.179,-2.74193 -8.72043,0 -18.75022,0.68511 -30.086784,2.0557 -5.274494,1.87821 -10.842284,2.81785 -16.704627,2.81785 -12.701778,0 -26.78386,-4.37141 -42.245349,-13.11274 l 4.421025,-17.68707 c 13.786699,-7.12706 29.414972,-10.69084 46.882218,-10.69084 z m -20.216144,7.93403 c -1.688647,0 -3.45414,0.25303 -5.296299,0.76065 -7.368752,1.47212 -10.561358,6.13977 -9.578886,14.00289 1.96505,3.90872 4.420907,6.11796 7.368374,6.62559 0.210564,0.0355 0.40845,0.0521 0.593935,0.0521 2.411121,0 2.70437,-2.9636 0.87974,-8.89266 -1.964998,-6.39102 -0.491441,-9.58634 4.421025,-9.58634 3.930049,0 4.912349,3.19532 2.94735,9.58634 -1.96506,6.38592 -2.4562,9.57888 -1.473675,9.57888 h 72.214537 v -7.38624 c -34.38752,-1.97974 -54.037453,-5.17269 -58.949974,-9.57888 -3.684408,-3.29957 -8.060071,-4.94947 -13.126127,-4.94947 z"
     inkscape:connector-curvature="0"
     sodipodi:nodetypes="scscccsccscccscsccssccccccscscccccsccsccscscscccscscscsccsscscsccccscccccccccscccsccscscscscccscscccsccsccccscscccsccscscsccscccccccccsscsccscscccccccccccccscsccccscccscsccccccccscscsccccc" />
</svg>
