<?xml version="1.0" encoding="UTF-8" standalone="no"?>
<svg
   xmlns:dc="http://purl.org/dc/elements/1.1/"
   xmlns:cc="http://creativecommons.org/ns#"
   xmlns:rdf="http://www.w3.org/1999/02/22-rdf-syntax-ns#"
   xmlns:svg="http://www.w3.org/2000/svg"
   xmlns="http://www.w3.org/2000/svg"
   xmlns:sodipodi="http://sodipodi.sourceforge.net/DTD/sodipodi-0.dtd"
   xmlns:inkscape="http://www.inkscape.org/namespaces/inkscape"
   width="1600"
   height="1800"
   version="1.1"
   id="svg893"
   sodipodi:docname="US7036A482VARA.svg"
   inkscape:version="0.92.2 (5c3e80d, 2017-08-06)">
  <metadata
     id="metadata899">
    <rdf:RDF>
      <cc:Work
         rdf:about="">
        <dc:format>image/svg+xml</dc:format>
        <dc:type
           rdf:resource="http://purl.org/dc/dcmitype/StillImage" />
        <dc:title></dc:title>
      </cc:Work>
    </rdf:RDF>
  </metadata>
  <defs
     id="defs897" />
  <sodipodi:namedview
     pagecolor="#ffffff"
     bordercolor="#666666"
     borderopacity="1"
     objecttolerance="10"
     gridtolerance="10"
     guidetolerance="10"
     inkscape:pageopacity="0"
     inkscape:pageshadow="2"
     inkscape:window-width="1920"
     inkscape:window-height="1017"
     id="namedview895"
     showgrid="false"
     inkscape:zoom="0.22604555"
     inkscape:cx="184.68236"
     inkscape:cy="885.91114"
     inkscape:window-x="-8"
     inkscape:window-y="-8"
     inkscape:window-maximized="1"
     inkscape:current-layer="svg893" />
  <path
     id="path891"
     style="fill:#000000;stroke:none;stroke-width:41.46349716"
     d="m 312.95507,40.044734 q 33.93584,21.867034 15.2568,50.855366 -15.03164,23.32798 -33.41362,11.48333 -20.50302,-13.211348 -11.59627,-25.481075 4.15597,-2.723259 6.36191,-1.30186 1.47049,0.947548 2.06709,3.748928 12.01889,7.744553 17.48536,-0.73899 6.83426,-10.606143 -5.89171,-18.806298 -24.03787,-15.489137 -40.28101,5.060538 -10.83812,23.031148 -1.15265,38.278997 5.12016,8.08389 17.86802,16.2982 11.33152,7.30161 28.67553,14.72867 l -32.64005,91.02666 q -7.90249,16.92211 -14.01423,13.9852 L 244.48666,109.0356 q 0,0 -0.0657,-0.0427 -0.82441,-0.53115 -1.40869,-24.066164 -0.63008,-25.419195 9.84929,-41.682212 19.1326,-29.692374 60.13852,-3.269703 z M 519.39822,173.0692 q 41.00592,26.42269 21.8732,56.11505 -10.47926,16.26302 -33.88717,26.19306 -21.67314,9.19319 -22.49742,8.66203 -0.0657,-0.0426 -0.0657,-0.0426 l -125.62011,38.12293 q -5.20663,-4.34145 6.94451,-18.5407 l 69.40389,-67.33737 q 13.93016,12.72491 25.18348,19.97612 12.65996,8.15756 21.94996,9.35913 17.5339,2.29132 34.02815,-17.09525 12.70805,-22.82754 -11.32984,-38.31672 -12.72585,-8.20011 -19.56011,2.40605 -5.46648,8.48354 6.5524,16.22812 2.79729,-0.61457 4.26766,0.33297 2.20595,1.42142 1.44349,6.33126 -7.49292,13.18076 -28.70267,-0.48603 -18.38199,-11.84467 -3.35022,-35.17264 18.67902,-28.98833 53.32184,-6.66572 z M 450.19189,148.48674 330.42452,292.43137 282.34863,261.45307 Q 350.50779,129.27863 363.23124,92.452429 Z M 267.80154,301.10942 q -25.60824,-11.49936 -43.15529,0.20454 -7.29005,11.3137 6.8498,20.42495 13.43306,8.65574 22.23195,4.31719 8.59176,-2.46443 15.92816,-10.74439 5.01276,-7.77948 -1.85462,-14.20229 z m 33.22887,21.41149 q -8.67535,-3.61703 -13.69937,4.17987 -4.50838,10.10224 -3.20218,18.94451 -0.31498,9.80534 13.11808,18.46105 13.43282,8.65568 20.72305,-2.65802 3.40703,-20.81519 -16.93958,-38.92741 z m -74.51173,24.023 -11.38874,17.6746 50.19672,32.34499 11.3888,-17.67463 z m 71.66591,-56.8729 q 19.79592,12.75579 29.58614,27.06486 9.78784,14.31252 17.06383,39.5107 7.27384,25.20163 3.01874,36.46347 -15.12874,17.26739 -57.94036,24.70256 -33.71317,7.28999 -65.5281,-13.21036 -31.10776,-20.0448 -39.10736,-54.21298 -10.21318,-41.60243 -1.90328,-62.26235 9.66,-8.78037 35.6149,-12.57063 25.95282,-3.78667 43.38435,-0.56004 17.42927,3.23012 35.81114,15.07477 z M 320.51016,14.513423 Q 307.88799,6.3801294 291.76803,5.379786 255.68819,3.1441155 237.00929,32.132434 q -21.86596,33.934162 -8.80702,108.386446 14.97736,77.68616 2.36403,106.57769 -27.55509,13.26067 -44.52302,2.32715 -6.363,-4.10009 -15.46905,-12.48331 -6.51407,-5.9731 -12.57393,-9.87792 -2.42408,-1.56202 -4.87053,-2.64516 -11.76124,-6.5919 -30.32146,0.47352 -7.29009,11.3137 4.05489,35.63164 24.29581,16.64181 32.42964,59.91824 10.56127,48.82606 26.85304,76.33644 -5.98389,20.15603 -14.2453,43.84625 -13.02301,32.63281 -57.87159,103.78684 Q 76.420111,601.22391 5.8709679,699.84077 L 46.16983,725.8079 q 59.94399,-105.45048 96.84608,-162.71954 45.55559,-70.69847 70.59761,-95.58672 18.15913,-17.31234 33.33414,-31.54602 27.54189,0.73453 80.86158,-5.92772 43.42387,-13.04362 68.62469,2.19357 26.37691,0.98998 33.66702,-10.32373 -0.78637,-20.51825 -11.39143,-27.35174 -2.36786,-2.01902 -5.23496,-3.86651 -5.73458,-3.69515 -13.17525,-7.15781 -11.17223,-5.17665 -17.53521,-9.27672 -16.96792,-10.9335 -16.73461,-40.79805 19.93667,-23.17629 96.16191,-42.09479 73.19478,-18.87355 95.06067,-52.80769 18.67902,-28.98834 2.08755,-60.6921 -7.38709,-14.20595 -19.92196,-22.28297 -15.51942,-10.0001 -38.88824,-10.66969 L 346.40408,45.586844 Q 336.1378,24.583249 320.51016,14.513423 Z m 782.62474,74.118036 c -20.273,0 -41.1552,1.517738 -62.6462,4.552179 -69.84659,9.802562 -120.08611,63.720102 -150.72057,161.752402 -17.15526,22.0525 -36.76135,52.07346 -58.8182,90.06336 -11.02836,24.50643 -11.336,38.29002 -0.92044,41.35085 10.41569,3.10042 19.30024,8.30887 26.65256,15.62451 -8.5777,4.88149 -11.94759,9.78299 -10.10952,14.70407 1.83808,4.88149 6.43324,7.94919 13.78554,9.20255 h 0.91082 c 0.72913,0 -1.41291,2.24244 -6.42581,6.72813 -6.12693,5.54116 -5.20753,10.74962 2.75751,15.62452 7.9649,4.88149 11.94848,17.74723 11.94848,38.59913 0,20.89807 10.99802,31.34723 32.99364,31.34723 1.22196,0 2.47655,-0.0323 3.76652,-0.0982 h 18.03733 c 16.77236,0 29.75362,-1.38493 38.94379,-4.1555 l 9.18914,44.1199 c -117.63628,0 -191.1577,25.73338 -220.56678,77.20018 C 655.10794,714.89431 562.59203,800.67156 474.36483,892.5756 457.20958,855.81267 417.99737,806.48967 356.72845,744.60682 295.45961,682.72396 259.92314,637.69154 250.12014,609.51081 c -6.08299,-17.90982 -13.93723,-35.4475 -23.56193,-52.6119 L 186.6304,498.9049 c -20.27925,-24.1964 -44.455,-47.57163 -72.5267,-70.12545 -15.929911,12.24991 -15.316334,31.24195 1.83897,56.97536 l -47.790131,69.84815 c -7.273428,27.8839 1.043436,52.76776 24.950316,74.64874 l 56.440025,34.19523 c 19.57345,11.80794 39.621,23.9308 60.14109,36.36541 107.83324,192.38368 186.86934,295.92627 237.10978,310.63006 2.87196,0.6597 5.88658,0.9898 9.04272,0.9898 37.24295,0 94.27196,-33.32619 171.08784,-99.97838 74.35592,-67.10077 118.51656,-100.65045 132.481,-100.65045 4.90644,0 6.08425,4.14264 3.53545,12.42798 0,40.43726 8.88461,75.66667 26.65256,105.68787 17.76801,30.0212 60.96165,165.11958 129.58297,405.29568 L 601.1922,1098.1033 c -47.78974,-42.8912 -89.45444,-64.3372 -124.99033,-64.3372 -101.70633,1.2535 -145.8196,43.5312 -132.34043,126.8333 l 47.79014,358.4124 c -75.97349,23.2861 -109.67099,89.4574 -101.09333,198.5126 -34.31058,6.1349 -66.17128,15.327 -95.58027,27.5769 -25.5731,10.6535 -51.14568,15.9808 -76.71879,15.9808 h -11.50752 -4.89492 c -26.632021,0 -43.994149,14.4498 -52.086216,43.3496 H 1580.8803 c -27.5709,-51.0578 -63.6513,-76.5859 -108.2412,-76.5859 -8.9181,0 -18.1765,1.0226 -27.7752,3.0675 -9.2893,1.979 -18.093,2.9674 -26.4099,2.9674 -43.2478,0 -73.3505,-26.7189 -90.3079,-80.1579 -12.6673,-39.9227 -30.9855,-59.885 -54.9555,-59.8851 -14.2897,0 -30.5886,7.0946 -48.8954,21.284 46.5643,-89.4501 48.403,-183.8036 5.515,-283.0629 2.4507,-107.8349 6.74,-202.8011 12.867,-284.8961 151.9468,47.786 252.4279,71.6796 301.4429,71.6796 36.7613,-4.8815 55.1423,-22.0369 55.1423,-51.4643 -42.8884,-117.63743 -119.4757,-261.61791 -229.7597,-431.94251 -14.1117,-17.01928 -30.8242,-31.15612 -50.1375,-42.40995 l 230.268,-323.36617 -53.3032,-36.76979 -239.5976,335.73637 c -24.1681,-5.73904 -50.9095,-8.60946 -80.2254,-8.60946 l -1.8389,-90.06336 c 33.0851,-12.24991 64.9437,-37.06241 95.5783,-74.43883 30.6343,-37.37643 45.953,-88.53818 45.953,-153.48186 0,-64.94368 -28.4907,-108.4443 -85.4707,-130.50339 -39.4477,-15.264561 -81.9792,-22.897591 -127.5938,-22.897591 z m -19.1156,33.149621 v 0.0386 c 30.0899,0 64.2876,4.93071 102.5953,14.79264 61.8817,15.93083 92.8227,52.08113 92.8227,108.44922 0,56.36807 -20.5254,104.46322 -61.5756,144.28699 -28.0869,27.25062 -49.4324,40.87715 -64.0385,40.87715 -6.7414,0 -12.0477,-2.90264 -15.9172,-8.70767 -12.2539,-17.1578 -1.8383,-42.58422 31.247,-76.27974 33.0853,-33.70211 41.3581,-66.17877 24.8156,-97.42694 -9.0719,-17.13141 -23.9486,-25.69553 -44.6283,-25.69553 -17.0302,0 -37.9956,5.81137 -62.8986,17.4346 -19.6058,-19.61173 -64.3329,-34.93014 -134.17942,-45.95309 13.47924,-34.31558 40.43677,-56.37343 80.87422,-66.17599 15.4048,-3.76007 32.366,-5.64015 50.8828,-5.64015 z M 933.88227,224.83662 c 57.59268,3.69411 104.15653,18.3997 139.69243,44.1199 -0.6334,10.72609 1.418,16.09051 6.1543,16.09051 4.456,0 11.2876,-4.75352 20.4963,-14.25925 13.2128,-13.6352 26.1295,-20.45205 38.7495,-20.45205 5.5212,0 10.9854,1.31851 16.3927,3.95716 17.7679,8.57559 20.2187,26.03779 7.352,52.38467 -12.8665,26.34688 -29.7142,48.70864 -50.5456,67.08681 -20.8315,18.37817 -25.7346,36.45236 -14.7061,54.22365 11.0283,17.76468 18.3819,33.39005 22.0581,46.87353 0,98.02571 8.5767,147.95768 25.7321,149.79815 13.6038,1.45125 36.6476,2.34292 69.1299,2.67276 l 72.2224,10.99339 c 10.6684,8.94501 11.9529,23.36678 3.8552,43.26877 -14.7049,36.14945 -44.1127,116.72127 -88.2264,241.71394 l -12.8671,86.43164 -18.3799,325.3458 -172.77857,38.601 C 908.76087,1084.4914 855.15146,927.64023 837.38346,903.13379 819.61551,878.62737 814.40668,806.9437 821.75893,688.08589 c -2.45078,-40.43724 30.63509,-60.65522 99.25631,-60.65522 1.59314,0.0264 3.1649,0.0404 4.71772,0.0404 60.57361,0 90.86064,-23.29671 90.86064,-69.88859 0,-45.27257 -18.40682,-67.90906 -55.22111,-67.90906 -4.04055,0 -8.30203,0.33011 -12.78622,0.98977 -6.09061,0.72564 -11.70601,1.08798 -16.84532,1.08798 -33.12142,0 -46.50044,-15.38288 -40.13578,-46.14951 28.18378,-14.70383 37.98766,-25.42276 29.41007,-32.1579 -8.57773,-6.74175 -23.28274,-11.33931 -44.11413,-13.79326 0,-11.02294 -10.41567,-20.82593 -31.24711,-29.40812 20.83144,-46.55891 41.05115,-79.03062 60.65716,-97.41539 10.08317,-5.67309 20.4083,-8.51126 30.97747,-8.51126 9.98223,0 20.18069,2.54031 30.59618,7.61969 21.44448,10.41606 42.58339,17.46437 63.41479,21.14529 V 280.2079 c -13.4792,-1.25336 -30.9406,-7.99166 -52.38468,-20.2152 -12.61426,-7.2101 -25.33585,-10.8143 -38.16207,-10.8143 -8.97828,0 -18.00743,1.77951 -27.08965,5.34168 8.57763,-12.25651 15.31747,-22.06253 20.21907,-29.41775 z m 205.70673,35.0271 c -3.4111,0 -7.3423,0.5938 -11.7925,1.7812 -14.092,3.69411 -26.6505,14.11102 -37.6787,31.24903 -11.0285,17.1512 -14.0925,30.0139 -9.191,38.5895 -12.2537,4.8815 -19.2996,11.62284 -21.1376,20.22483 -1.8378,8.5756 2.1438,15.00695 11.9465,19.29475 1.9065,0.85756 3.9875,1.28632 6.2409,1.28632 9.3366,0 21.6546,-7.15606 36.9547,-21.4707 18.9934,-17.77128 31.2461,-34.00866 36.7602,-48.71252 5.5141,-14.70385 6.4338,-26.0367 2.7575,-33.99881 -2.5153,-5.4752 -7.4688,-8.21279 -14.86,-8.21279 z m -200.36896,14.13023 v 0.0103 c -7.86734,0 -15.16107,1.97872 -21.88081,5.93669 l -20.21907,18.38586 v 14.70406 l 9.191,-1.88133 c 13.47907,6.74174 27.57052,10.11337 42.27511,10.11337 14.70459,0 30.0214,-3.37163 45.95128,-10.11337 l 31.24695,7.32314 v -16.54496 l -29.40998,-1.7812 c -21.58237,-17.43485 -40.63288,-26.1519 -57.15448,-26.1519 z m -66.36275,135.1942 v 0.19834 h 4.04382 c 7.35224,0.65966 15.31741,1.58358 23.89507,2.77098 8.57768,1.25336 12.25342,2.47321 11.02804,3.66061 H 867.7101 c -3.6761,0 -4.90133,-1.21987 -3.67601,-3.66061 0.98032,-1.97899 3.92166,-2.96932 8.8232,-2.96932 z m 37.12988,12.32977 c -2.45084,2.44075 -7.04598,5.21058 -13.78554,8.31099 -6.73956,3.03445 -12.56005,4.55219 -17.46156,4.55217 -4.90148,0 -7.96562,-0.62606 -9.191,-1.8794 -1.22539,-1.25336 -1.4e-4,-3.10119 3.67602,-5.54194 z m -426.9012,680.33438 c 10.2671,0 25.12685,5.4289 44.58205,16.2871 l 373.12816,277.5536 -391.50824,88.2225 c 33.08515,-158.0748 20.21898,-269.5834 -38.59913,-334.5272 -9.27518,-31.6901 -5.14245,-47.536 12.39716,-47.536 z M 1185.696,1386.5 c 24.5076,99.2527 6.7403,187.4788 -53.3031,264.679 -52.5456,30.2323 -111.5387,45.3485 -176.98025,45.3485 -45.96498,0 -95.11219,-7.4571 -147.43925,-22.3719 -52.32707,-14.915 -103.55873,-22.3719 -153.69561,-22.3719 -71.38117,0 -140.54246,15.1161 -207.48404,45.3484 11.0284,-40.4372 1.22628,-82.103 -29.40813,-124.9941 z M 1132.3929,279.19892 v 0.0501 c 6.617,0 9.3734,3.30826 8.2705,9.92467 -1.8377,11.02954 -7.3525,22.05845 -16.5431,33.08799 -9.1902,11.02294 -17.7671,18.37519 -25.7321,22.05609 -2.0779,0.92354 -3.6146,1.38453 -4.608,1.38453 -2.8154,0 -1.2787,-3.84971 4.608,-11.54797 6.1548,-8.04786 7.553,-12.07173 4.196,-12.07173 -0.9875,0 -2.3858,0.36427 -4.196,1.08989 -1.8964,0.72564 -3.4275,1.08799 -4.5944,1.08799 -3.7344,0 -3.7344,-3.73399 0,-11.20136 4.9012,-9.80257 11.6393,-19.60556 20.217,-29.40813 7.8426,-2.96848 13.9708,-4.45204 18.3821,-4.45204 z m -198.51063,8.03369 v 0.0116 c -4.9014,6.13486 -4.9014,12.87621 0,20.22484 -8.57769,-2.44075 -15.31753,-5.50846 -20.21907,-9.20256 2.45077,-4.8815 9.19068,-8.5601 20.21907,-11.03383 z m 23.90271,1.89673 25.72441,16.53919 c -11.02847,2.44074 -21.44417,3.66062 -31.24711,3.66062 8.57228,-4.87848 10.41274,-11.61201 5.5227,-20.19981 z m 119.46572,57.02737 c 9.8032,4.88148 11.9476,9.78299 6.4336,14.70406 -2.5952,2.30882 -4.9186,3.46419 -6.9708,3.46419 -2.3088,0 -4.2748,-1.45131 -5.8963,-4.35382 -3.0635,-5.54116 -0.9184,-10.1357 6.4335,-13.78362 z m -175.04112,18.87111 v 0.34661 c -0.16227,0 -0.32799,0.0261 -0.49488,0.0789 -1.8381,0.65966 -2.7575,3.09938 -2.7575,7.32123 0,4.28778 -1.83697,7.05956 -5.51307,8.31291 h -2.03537 c -3.0989,0 -6.40405,-2.24435 -9.91312,-6.73005 -4.28879,-5.54116 -7.65874,-8.31099 -10.10952,-8.31099 -2.45078,0 -4.28774,0.92391 -5.51306,2.77096 -1.22539,1.84706 -1.22539,4.58466 0,8.21278 1.29748,-1.31931 2.70997,-1.97953 4.23637,-1.97953 2.79841,0 5.9812,2.17794 9.54917,6.53171 3.79107,4.61763 7.87105,6.92647 12.24119,6.92647 1.98644,0 4.03279,-0.46292 6.13888,-1.38644 6.73957,-3.03445 9.49595,-7.62898 8.27056,-13.78362 -1.11397,-5.54116 -2.47932,-8.31099 -4.09965,-8.31099 z m 419.50292,416.74353 c 24.5076,51.4668 77.1997,130.50378 158.0744,237.11165 -35.5358,-28.18071 -107.2204,-51.46334 -215.0536,-69.8481 z"
     inkscape:connector-curvature="0" />
</svg>
