<?xml version="1.0" encoding="UTF-8" standalone="no"?>
<svg
   width="1100"
   height="1800"
   version="1.1"
   id="svg838"
   sodipodi:docname="US7036B47VARA.svg"
   inkscape:version="1.1 (c68e22c387, 2021-05-23)"
   xmlns:inkscape="http://www.inkscape.org/namespaces/inkscape"
   xmlns:sodipodi="http://sodipodi.sourceforge.net/DTD/sodipodi-0.dtd"
   xmlns="http://www.w3.org/2000/svg"
   xmlns:svg="http://www.w3.org/2000/svg">
  <defs
     id="defs842" />
  <sodipodi:namedview
     id="namedview840"
     pagecolor="#ffffff"
     bordercolor="#666666"
     borderopacity="1.0"
     inkscape:pageshadow="2"
     inkscape:pageopacity="0.0"
     inkscape:pagecheckerboard="0"
     showgrid="false"
     inkscape:zoom="0.39498543"
     inkscape:cx="208.86846"
     inkscape:cy="1383.5953"
     inkscape:window-width="2560"
     inkscape:window-height="1537"
     inkscape:window-x="-8"
     inkscape:window-y="-8"
     inkscape:window-maximized="1"
     inkscape:current-layer="svg838" />
  <path
     id="path836"
     style="fill:#000000;stroke:none;stroke-width:48.3822"
     d="m 161.38819,27.710165 c -3.55201,37.457121 -5.32802,79.434935 -5.32802,125.933435 0,46.4985 2.26035,93.48136 6.78105,140.94857 -10.33303,-5.48939 -26.47834,-8.23409 -48.43594,-8.23409 -22.280511,0 -38.425835,2.7447 -48.435968,8.23409 4.843607,-47.46721 7.10396,-94.45007 6.78106,-140.94857 -0.322907,-46.4985 -2.098873,-88.476314 -5.3279,-125.933435 z M 114.40528,316.38835 c 21.9576,0.32291 44.23814,6.13523 66.84163,17.43696 l -8.7185,15.98386 c -4.56683,-0.79738 -8.84074,-1.19607 -12.82174,-1.19607 -13.75249,0 -24.00934,4.75792 -30.77058,14.27377 -3.87487,-17.11406 -8.71847,-27.60852 -14.53081,-31.48337 -5.8123,3.87485 -10.81735,14.36931 -15.015128,31.48336 -6.761247,-9.51585 -17.018127,-14.27378 -30.77064,-14.27378 -3.980993,0 -8.25489,0.39869 -12.82169,1.19606 l -8.7185,-15.98386 c 23.249287,-11.30173 45.691273,-17.11404 67.325958,-17.43693 z m 0,46.49851 c 4.8436,3.87487 6.45812,9.52572 4.84358,16.95257 -1.61467,7.42685 -3.2292,14.53079 -4.84358,21.31182 -1.93755,-6.78103 -3.71354,-13.88497 -5.32796,-21.31182 -1.61467,-7.42685 0.16132,-13.0777 5.32796,-16.95257 z m 44.10974,0.0881 c 1.82724,0 3.75367,0.13209 5.7793,0.39626 -21.95764,52.31081 -38.58732,78.46622 -49.88904,78.46622 -10.97882,0 -27.931398,-26.15541 -50.857738,-78.46622 2.069467,-0.26417 4.03392,-0.39626 5.89336,-0.39626 11.776093,0 19.337373,5.2986 22.68384,15.89579 4.19778,11.94752 8.557018,21.63471 13.077718,29.06157 4.84358,7.74975 7.91119,11.62462 9.20282,11.62462 1.61467,0 4.52083,-3.87487 8.71849,-11.62462 4.52067,-7.42686 8.71845,-17.11405 12.59333,-29.06157 3.62536,-10.59719 11.22467,-15.89579 22.79792,-15.89579 z M 38.845232,5.4296309 C 54.344752,115.21776 54.183315,214.18853 38.360922,302.34194 9.6222493,315.904 -2.3252807,327.36717 2.5183323,336.73145 c 3.544067,7.08819 7.6068197,10.63228 12.1882597,10.63228 1.679813,0 3.429363,-0.47648 5.24865,-1.42945 28.092874,31.6448 51.180677,68.94047 69.26341,111.887 20.837658,663.14332 5.502222,879.90352 -2.90633,1296.67402 0,34.5539 9.034757,51.8308 27.104268,51.8308 0.16772,0 0.33577,0 0.50414,-0.01 h 0.48431 c 0.16906,0.01 0.33723,0.01 0.50452,0.01 18.06948,0 27.10421,-17.2769 27.10421,-51.8308 -8.71845,-173.7236 -9.68723,-1225.95758 -2.90634,-1296.67401 17.75986,-42.94653 40.68623,-80.24219 68.77911,-111.887 1.81915,0.95297 3.56869,1.42946 5.24864,1.42946 4.58143,0 8.64418,-3.54409 12.18826,-10.63228 4.84367,-9.36429 -6.94236,-20.82747 -35.35809,-34.38953 -16.14533,-88.15341 -16.14533,-187.12418 0,-296.9123091 z M 760.89454,5.0634779 c -77.80721,0 -122.07657,34.2083271 -132.8086,102.6250021 -2.68297,21.46409 -12.07383,46.28157 -28.17187,74.45312 0,9.39056 6.70802,14.08594 20.12305,14.08594 l -4.02344,12.07422 c 0,5.36599 4.02328,8.71905 12.07226,10.06055 -9.39053,6.70752 -9.39054,12.74531 0,18.11133 0,21.46402 7.37822,32.19531 22.13477,32.19531 h 28.17188 l 12.07421,28.17187 c -1.50574,-0.0274 -3.00069,-0.041 -4.48242,-0.041 -71.12372,0 -114.57026,31.53915 -130.33984,94.61719 L 426.86134,562.45802 197.4629,488.0049 l 2.01367,-2.01172 c -14.75655,-12.07356 -34.88058,-21.46442 -60.36914,-28.17189 h -26.1582 -14.085938 l -26.160157,-2.01172 c -4.02447,18.78102 0.670925,29.51231 14.085938,32.19532 -2.683003,36.22063 4.024965,62.38048 20.123047,78.47851 l 38.23242,-6.03711 c 17.43949,-1.34152 38.90396,-8.04956 64.39258,-20.12304 87.19769,61.70911 168.35819,96.58769 243.48242,104.63671 25.48855,-9.39053 71.10031,-62.37856 136.83398,-158.96679 20.12256,28.17155 44.26986,48.29365 72.44141,60.36719 -9.39047,72.4412 -24.14691,163.99786 -44.26953,274.67187 -20.12247,110.67403 -18.78206,210.61617 4.02344,299.82617 22.80564,89.21 34.87925,175.403 36.2207,258.5762 2.68303,83.1733 -8.71847,179.0902 -34.20703,287.7519 1.34151,29.5131 -6.37181,46.2822 -23.14063,50.3067 -16.76874,4.0243 -35.21526,10.3952 -55.33789,19.1152 -20.12256,8.7197 -44.26985,16.4331 -72.4414,23.1406 h -48.29493 c -1.28787,30.9083 9.78783,46.3633 33.22657,46.3633 0.97664,0 1.97461,-0.027 2.99414,-0.08 h 372.26757 c 28.1716,-12.0736 36.22202,-41.5864 24.14844,-88.5391 l -2.01367,-56.3438 c 18.78108,-116.7108 26.83148,-204.5792 24.14844,-263.6054 -2.68297,-59.0262 -9.39102,-110.6738 -20.12305,-154.9434 -10.73202,-44.2696 -4.02397,-112.6863 20.12305,-205.25 24.14709,-92.56379 35.54852,-160.31018 34.20703,-203.23829 -1.34155,-52.31864 -18.11057,-106.64906 -50.30664,-162.99219 5.36601,-65.73367 14.08658,-122.74689 26.16016,-171.04102 h 30.18359 v -52.31835 l 74.45312,150.91796 c -2.68302,40.24509 1.3422,83.84428 12.07419,130.79688 10.7321,46.95263 15.4275,98.60023 14.086,154.94336 -26.8301,33.53763 -38.90371,59.69749 -36.22073,78.47851 2.68303,18.78108 4.02343,34.20771 4.02343,46.28124 -4.02461,10.732 -3.35245,17.4401 2.01368,20.1231 1.53316,0.7664 2.98269,1.1504 4.35156,1.1504 3.42219,0 6.33096,-2.3967 8.72656,-7.1875 3.3538,-6.7076 5.0313,-15.4262 5.0313,-26.15825 0,-12.07358 0.6702,-22.13461 2.0117,-30.18359 l 2.0136,-6.03711 c 1.3416,0 3.3541,2.68277 6.0372,8.04882 0,25.48854 -3.355,44.60543 -10.0625,57.34963 -6.7076,12.7443 -14.08583,30.5187 -22.13481,53.3242 -1.34159,8.0492 8.4e-4,12.0742 4.02539,12.0742 5.36599,0 7.37855,-1.3424 6.03711,-4.0253 2.68302,2.6829 4.69361,4.0253 6.03511,4.0253 4.0246,0 6.7074,-0.6722 8.0489,-2.0136 1.3415,1.3414 3.3541,2.0136 6.0371,2.0136 2.6829,0 4.0254,-0.6722 4.0254,-2.0136 2.683,1.789 5.2166,2.6836 7.6015,2.6836 1.1925,0 2.347,-0.2231 3.4649,-0.67 3.3537,-1.3414 6.3736,-4.6944 9.0566,-10.0605 1.3415,-13.4149 6.7071,-29.5139 16.0977,-48.2949 9.3904,-18.7811 14.756,-32.8674 16.0976,-42.25786 0,-13.41506 -0.6702,-24.81649 -2.0117,-34.20703 -4.0248,-24.14786 -8.7199,-44.2711 -14.0859,-60.36914 29.513,-119.39384 32.866,-207.93254 10.0605,-265.61719 -6.7075,-68.41695 -28.172,-137.50554 -64.3926,-207.26367 C 986.26721,337.75608 958.76694,294.82911 919.86329,294.8291 V 194.21582 c 0,-60.36766 -14.42139,-106.984727 -43.26367,-139.851561 C 847.75726,21.497425 809.18866,5.0634779 760.89454,5.0634779 Z m 0,22.1347661 c 40.2451,0 72.77784,15.426686 97.5957,46.28125 24.81778,30.854566 37.22656,67.075466 37.22656,108.662106 V 477.94434 H 762.90821 V 174.09278 c 24.14703,-18.78108 36.2207,-37.56273 36.2207,-56.34375 0,-17.43956 -7.38016,-26.158208 -22.13671,-26.158208 -16.09801,0 -24.14649,10.731288 -24.14649,32.195318 -28.67459,-20.17844 -55.24599,-30.267584 -79.7168,-30.267584 -6.43968,0 -12.73422,0.698296 -18.88281,2.095703 12.07355,-45.611113 47.6223,-68.416015 106.64844,-68.416015 z m -92.5625,289.765626 h 74.45312 V 500.0791 h 122.74805 l -4.02539,18.10938 H 662.29493 c -18.78101,-9.39054 -36.89247,-26.82979 -54.33203,-52.31836 22.80556,-33.53763 32.86855,-66.06845 30.18554,-97.59375 -2.68299,-31.52537 7.37807,-48.62949 30.1836,-51.3125 z m 38.23242,1344.18553 h 70.42774 v 34.209 c -1.34145,6.7076 -24.81663,20.1216 -70.42774,40.2442 1.34145,-28.1716 1.34145,-52.9891 0,-74.4532 z M 776.9922,101.65137 c 8.04908,0 12.07421,5.36564 12.07421,16.09766 0,12.07348 -8.71864,26.82998 -26.1582,44.26953 h -20.12305 v 134.82226 c -26.8301,0 -42.25673,-14.75643 -46.28125,-44.26953 h -36.2207 c -12.07355,0 -18.11133,-4.69547 -18.11133,-14.08593 0,-9.39056 6.70805,-18.78134 20.12305,-28.17188 l -28.17188,-10.06055 c 0,-12.07354 -6.03582,-18.11133 -18.10937,-18.11133 l 20.12109,-42.25781 6.43946,-16.09765 1.60937,8.04882 c 8.83813,-5.05034 19.16177,-7.57421 30.9707,-7.57421 13.2851,0 28.45108,3.19603 45.4961,9.58789 h 12.07226 v -8.05078 H 720.6504 c -18.44568,-8.1161 -34.6588,-12.17383 -48.64063,-12.17383 -10.72473,0 -20.13798,2.38888 -28.23633,7.16406 l 4.43555,-11.08789 c 5.366,-1.67691 11.36068,-2.51563 17.98438,-2.51563 19.871,0 45.40183,7.54678 76.59179,22.63868 v 10.06054 h 20.12305 c 0,-25.48856 4.6935,-38.23248 14.08399,-38.23242 z m -98.59961,28.17188 c -18.78112,0 -30.85473,6.03778 -36.22071,18.11132 v 4.02344 h 8.04883 c 5.36599,4.02448 11.40378,6.03711 18.11133,6.03711 8.04902,0 24.81806,-3.35307 50.30664,-10.06055 l 12.07226,2.01172 v -8.04883 h -12.07226 c -20.12257,-6.70754 -33.53863,-10.73276 -40.24609,-12.07421 z m -14.08594,8.04882 v 6.03711 c 0,1.34146 1.34242,3.35409 4.02539,6.03711 -4.02455,0 -10.06233,-1.34236 -18.11133,-4.02539 5.36599,-5.36599 10.06135,-8.04883 14.08594,-8.04883 z m 16.09765,0 c 8.04902,1.34152 16.09946,4.02435 24.14844,8.04883 -5.36598,1.34152 -14.08668,2.68388 -26.16015,4.02539 2.68302,-1.34144 4.02539,-3.35407 4.02539,-6.03711 0,-1.34151 -0.6721,-3.35408 -2.01368,-6.03711 z m 22.13477,400.43946 h 136.83398 c -4.02454,17.43956 -8.71993,63.04933 -14.08593,136.83203 30.85459,53.66012 47.6236,107.32034 50.30664,160.98047 0,41.58662 -12.74388,108.99791 -38.23242,202.23247 -25.48864,93.2344 -31.52643,161.9862 -18.11133,206.2558 13.415,44.2696 21.12833,95.5821 23.14062,153.9375 2.01224,58.3555 -5.70109,133.1451 -23.14062,224.3672 l -146.89453,2.0117 c 18.78101,-76.4655 27.50161,-158.2963 26.16015,-245.4941 -2.68301,-87.1977 -15.42689,-176.0735 -38.23242,-266.625 -22.80557,-90.5515 -24.14795,-189.48641 -4.02539,-296.80667 20.12253,-107.32028 35.54923,-199.88418 46.28125,-277.6914 z" />
</svg>
