<?xml version="1.0" encoding="UTF-8" standalone="no"?>
<svg
   xmlns:dc="http://purl.org/dc/elements/1.1/"
   xmlns:cc="http://creativecommons.org/ns#"
   xmlns:rdf="http://www.w3.org/1999/02/22-rdf-syntax-ns#"
   xmlns:svg="http://www.w3.org/2000/svg"
   xmlns="http://www.w3.org/2000/svg"
   xmlns:sodipodi="http://sodipodi.sourceforge.net/DTD/sodipodi-0.dtd"
   xmlns:inkscape="http://www.inkscape.org/namespaces/inkscape"
   width="1800"
   height="1800"
   version="1.1"
   id="svg4516"
   sodipodi:docname="US7036Aa17vara.svg"
   inkscape:version="0.92.2 (5c3e80d, 2017-08-06)">
  <metadata
     id="metadata4522">
    <rdf:RDF>
      <cc:Work
         rdf:about="">
        <dc:format>image/svg+xml</dc:format>
        <dc:type
           rdf:resource="http://purl.org/dc/dcmitype/StillImage" />
        <dc:title></dc:title>
      </cc:Work>
    </rdf:RDF>
  </metadata>
  <defs
     id="defs4520" />
  <sodipodi:namedview
     pagecolor="#ffffff"
     bordercolor="#666666"
     borderopacity="1"
     objecttolerance="10"
     gridtolerance="10"
     guidetolerance="10"
     inkscape:pageopacity="0"
     inkscape:pageshadow="2"
     inkscape:window-width="1920"
     inkscape:window-height="1017"
     id="namedview4518"
     showgrid="false"
     inkscape:zoom="0.26086839"
     inkscape:cx="-595.497"
     inkscape:cy="729.07119"
     inkscape:window-x="-8"
     inkscape:window-y="-8"
     inkscape:window-maximized="1"
     inkscape:current-layer="svg4516" />
  <path
     style="fill:#000000;stroke:none;stroke-width:126.80290222"
     d="m 1313.1462,3.805323 c -33.1704,0 -67.8184,10.131348 -103.9443,30.394459 -86.4262,62.522274 -113.0906,162.737558 -79.9911,300.648398 L 607.89743,1054.7596 H 3.8340551 v 397.1985 345.9247 H 1556.7457 V 1451.9581 1054.7596 H 762.36141 L 1228.5097,403.80567 C 1370.1013,394.6167 1456.5275,339.45124 1487.7882,238.31325 1504.3378,151.8844 1480.4316,85.68556 1416.0717,39.715271 1383.5087,15.774888 1349.201,3.805323 1313.1462,3.805323 Z m 3.0919,107.553307 c 39.9188,0 62.1647,22.08845 66.7357,66.26659 5.5167,58.84499 -45.9715,100.22094 -154.4641,124.12751 -9.1942,-110.32698 11.0341,-172.84941 60.683,-187.567 9.7722,-1.85977 18.7862,-2.78927 27.0454,-2.78927 z M 86.581538,1140.2761 H 1471.2392 v 228.9294 H 86.581538 Z m 0,311.682 H 1471.2392 V 1708.195 H 86.581538 Z"
     id="path4514"
     inkscape:connector-curvature="0" />
</svg>
