<?xml version="1.0" encoding="UTF-8" standalone="no"?>
<svg
   xmlns:dc="http://purl.org/dc/elements/1.1/"
   xmlns:cc="http://creativecommons.org/ns#"
   xmlns:rdf="http://www.w3.org/1999/02/22-rdf-syntax-ns#"
   xmlns:svg="http://www.w3.org/2000/svg"
   xmlns="http://www.w3.org/2000/svg"
   xmlns:sodipodi="http://sodipodi.sourceforge.net/DTD/sodipodi-0.dtd"
   xmlns:inkscape="http://www.inkscape.org/namespaces/inkscape"
   width="1800"
   height="1210"
   version="1.1"
   id="svg831"
   sodipodi:docname="US7036P130.svg"
   inkscape:version="0.92.2 (5c3e80d, 2017-08-06)">
  <metadata
     id="metadata837">
    <rdf:RDF>
      <cc:Work
         rdf:about="">
        <dc:format>image/svg+xml</dc:format>
        <dc:type
           rdf:resource="http://purl.org/dc/dcmitype/StillImage" />
        <dc:title></dc:title>
      </cc:Work>
    </rdf:RDF>
  </metadata>
  <defs
     id="defs835" />
  <sodipodi:namedview
     pagecolor="#ffffff"
     bordercolor="#666666"
     borderopacity="1"
     objecttolerance="10"
     gridtolerance="10"
     guidetolerance="10"
     inkscape:pageopacity="0"
     inkscape:pageshadow="2"
     inkscape:window-width="1920"
     inkscape:window-height="1017"
     id="namedview833"
     showgrid="false"
     inkscape:zoom="0.1402531"
     inkscape:cx="-879.72534"
     inkscape:cy="1028.5592"
     inkscape:window-x="-8"
     inkscape:window-y="-8"
     inkscape:window-maximized="1"
     inkscape:current-layer="svg831" />
  <path
     id="path890"
     style="fill:#000000;stroke:none;stroke-width:39.87425232"
     d="M 1278.6607,1006.9441 1243.5473,681.052 c 8.7807,-9.5114 9.1472,-17.9255 1.0984,-25.2437 0,-20.4874 11.3412,-38.415 34.0247,-53.7825 h 8.7809 c 4.3904,0 6.403,-3.4761 6.0372,-10.4276 -0.3659,-6.9514 -2.3785,-10.4266 -6.0372,-10.4266 H 940.61321 c -4.39025,0 -6.58619,4.0239 -6.58619,12.0732 0,5.8536 2.19594,8.781 6.58619,8.781 h 9.87841 c 21.95178,15.3675 32.92739,33.2951 32.92739,53.7825 -8.04903,7.3182 -7.31765,15.7323 2.19467,25.2437 l -37.31782,324.8875 23.06717,0.9568 36.20327,-325.8166 212.932,-0.019 37.3179,324.8875 -17.541,1.6025 z m -57.2017,0.9041 -29.4984,-303.7205 h -154.7602 l -27.3705,304.3644 17.4922,0.7252 26.342,-284.2757 120.7354,0.024 28.5369,283.1754 z M 979.02849,602.0335 h 270.00671 c -19.0249,11.7071 -28.5369,29.6345 -28.5369,53.7824 h -212.932 c 0,-24.1479 -9.513,-42.0753 -28.53781,-53.7824 z m 360.35051,486.2117 -897.35013,-0.016 H 157.17809 v 120.5243 H 1802.0417 v -120.509 z M 204.51893,1126.9819 H 1759.0019 v 43.0359 H 204.51893 Z M 277.05042,8.40058 c -8.77114,0 -7.33091,6.51153 5.86914,20.39843 111.61672,74.41625 175.55816,140.9036 193.6582,196.20704 C 434.34445,166.68266 362.01504,107.50488 257.43714,49.18964 c -6.89966,-1.54661 -12.34888,-2.2793 -16.32617,-2.2793 -11.67343,0 -10.66437,6.67473 3.58593,20.14649 98.54444,68.37634 165.03482,132.31681 196.20703,193.66015 h -1.33398 c -5.65676,0 -21.57954,-4.8828 -44.5332,-15.41601 -10.42115,-4.80263 -20.67252,-7.2461 -31.03907,-7.2461 -14.64084,0 -29.50905,4.88489 -45.40429,14.88086 l 10.1914,17.83399 c 22.18749,33.28463 42.50831,50.01367 59.82813,50.01367 3.08874,0 6.08105,-0.8149 8.97265,-1.62891 9.87012,-3.66302 18.13244,-5.69726 24.64649,-5.69726 6.09502,0 10.65969,1.79004 13.57617,5.69726 -7.03894,31.16822 -5.9654,55.79108 5.0957,73.89453 -36.19998,3.98862 -62.43542,15.02741 -81.54101,33.13089 4.02232,-12.0717 -5.90705,-37.23248 -28.0293,-76.4512 l -30.57812,86.6426 c -4.02232,-30.16701 -23.88081,-53.25237 -56.0586,-71.34768 -28.15557,-19.11282 -42.85055,-36.35247 -45.86718,-48.41601 0,-9.05173 -1.54329,-12.74024 -2.54883,-12.74024 h -5.09571 l -2.54882,5.12891 c -7.03886,23.12586 7.65605,49.82447 45.86718,78.99023 15.0833,17.09409 24.47686,28.63689 25.48243,35.66989 L 40.843388,359.95331 c -10.160027,-2.84901 -17.757549,-4.23437 -22.785156,-4.23437 -16.3686804,0 -5.485253,15.01924 32.978515,45.02343 L 267.6305,461.8986 254.88831,487.3771 45.939091,438.9689 C 35.989175,436.6897 28.436115,435.549 23.2887,435.549 c -17.7416623,0 -6.906687,13.5624 32.84375,41.6211 l 163.08203,35.6777 c -32.55276,-5.0468 -59.73426,-7.4902 -81.39062,-7.4902 -25.84043,0 -43.81497,3.4202 -53.662113,10.0137 -2.513929,2.035 -2.798223,4.0687 -2.546875,5.1269 l -33.126953,-5.1269 c -8.654688,-1.5466 -15.482267,-2.2793 -20.492188,-2.2793 -21.1834875,0 -9.868643,13.6916 33.232422,40.5293 151.838957,20.1059 228.866187,33.1862 231.882817,38.2168 5.02778,15.0835 10.26121,24.5421 15.28906,30.582 L 58.681278,591.8381 c -7.171034,-0.9768 -13.073967,-1.4649 -17.710937,-1.4649 -24.622461,0 -13.540934,13.4229 33,39.6582 l 252.267579,28.0254 v 22.9395 L 73.970341,663.1525 H 63.052372 c -33.165899,0 -25.085873,13.8956 26.207031,38.6251 l 236.978517,12.7382 v 28.0274 L 91.806278,737.4143 c -2.008612,-0.041 -3.910809,-0.064 -5.707031,-0.064 -37.770104,0 -28.622796,10.159 26.091793,33.1953 l 214.04688,2.5235 v 28.0254 l -208.94922,7.6523 c -45.250027,0.9768 -38.943009,12.0058 20.38477,33.1211 l 188.56445,-10.1914 v 28.0254 L 150.4137,874.9988 c -45.24995,3.0118 -37.39974,15.0257 22.93359,33.121 l 152.89063,-15.2871 v 30.5743 l -137.60156,20.3906 c -45.25002,5.0468 -38.4053,15.4907 22.93359,30.5742 l 114.66797,-17.8359 v 33.123 l -94.2832,17.8418 c -45.25003,8.0586 -38.40523,19.5119 22.93359,30.5742 l 71.34961,-15.2871 v 66.252 h 25.48047 v -71.3477 L 665.14222,953.989 c 55.30559,51.2823 109.25193,87.9126 160.53515,107.0254 l 25.48047,7.4238 20.38477,10.1914 25.48242,7.6426 c 3.01669,3.0118 24.48652,5.699 63.70312,12.7402 22.12227,5.0468 38.36038,9.1902 48.41605,10.1914 l 25.4824,2.5137 20.3848,2.5234 25.4805,0.059 c 17.0944,2.5234 34.6833,3.7442 52.9004,3.7442 18.2171,0 37.0635,-1.2208 56.6718,-3.7442 l 28.0293,-2.582 20.3848,-2.5469 25.4824,-2.5488 c 67.4939,-4.4801 150.3303,-40.1003 186.0156,-58.3555 35.6853,-18.2552 82.7639,-58.3555 135.0528,-114.6601 l 33.125,22.9297 c 3.0167,35.1894 19.7228,61.8645 45.8672,76.4433 13.707,7.6516 27.4398,11.291 41.6054,11.291 12.8533,0 26.0631,-3.0116 39.9356,-8.7421 2.0114,-32.1776 -6.9128,-60.9621 -28.0293,-84.0879 -13.5162,-14.8067 -30.1751,-21.8633 -49.3809,-21.8633 -10.7993,0 -22.4039,2.1981 -34.709,6.5937 l -30.5781,-22.9316 c 20.1111,-21.1153 37.423,-41.5784 53.5117,-63.7031 l 33.127,22.9296 c 2.0114,35.1976 16.6711,59.3174 43.3184,73.9043 13.9706,7.6517 27.6892,11.2911 41.7832,11.2911 12.7881,0 25.8854,-3.0116 39.7578,-8.7422 2.0114,-32.1776 -6.9129,-58.4149 -28.0293,-81.5489 -13.5463,-14.8312 -29.1993,-22.3027 -47.7071,-22.3027 -10.343,0 -21.5772,2.3602 -33.8339,7 l -33.127,-22.9297 c 15.0831,-20.1141 29.7082,-39.5047 40.7695,-58.6093 26.1445,-47.2611 27.7557,-77.1178 7.6446,-89.1895 -4.5006,-2.6862 -9.0458,-4.0703 -13.6719,-4.0703 -16.0463,0 -33.0667,16.3605 -52.5801,49.9219 -11.061,19.1047 -24.6806,37.9652 -40.7695,56.0605 l -71.3496,-48.416 c -1.7525,-2.1978 -3.4423,-3.3379 -5.2071,-3.3379 -2.2849,0 -4.6964,1.8727 -7.5332,5.8613 -5.0281,8.0587 -5.0281,12.275 0,15.295 l 66.252,50.957 c -17.0945,18.1035 -38.5643,37.4921 -63.7031,58.6074 l -61.1563,-45.8613 c -1.8185,-1.7908 -3.5702,-2.9297 -5.4082,-2.9297 -2.2263,0 -4.5782,1.6273 -7.332,5.4531 -6.0334,7.0005 -7.5769,13.8147 -2.5488,17.8359 l 56.0605,40.7735 c -66.3667,56.3047 -143.9665,94.5878 -236.9805,117.209 -46.7625,11.3797 -94.2403,17.1582 -142.1621,17.1582 -47.3979,0 -95.229,-5.6157 -143.2305,-17.1582 C 892.22576,971.5724 806.30816,931.7835 731.39417,877.4894 656.48023,823.1872 602.50101,755.584 568.31214,673.63 534.1233,591.6842 515.80601,516.2344 514.80042,446.8487 c 7.03894,7.0819 22.20363,13.8128 43.32031,17.834 21.11672,3.9886 44.19756,10.8681 71.34766,22.9317 3.33481,1.1396 6.74644,1.7089 10.21484,1.7089 9.08173,0 18.54828,-3.8267 28.00781,-11.8691 10.05552,-8.0586 13.20804,-19.0134 10.19141,-30.5723 -3.01654,-11.5669 -5.63158,-17.9089 -7.64258,-22.9394 -2.01116,-5.0468 -12.01032,-18.641 -33.12695,-40.76563 -21.11668,-22.12553 -31.58371,-36.28008 -30.57813,-43.32121 -7.03894,-21.11527 -27.43514,-48.8252 -58.60742,-78.99219 C 513.73853,157.2896 428.32523,74.48855 290.56409,11.14276 284.78214,9.35195 281.02714,8.70073 277.8219,8.61933 c -0.26537,-0.008 -0.5224,-0.0156 -0.77148,-0.0156 z m 89.64453,248.70312 c 9.06833,0 19.87689,2.44247 33.43945,8.67774 25.13886,11.56699 40.83939,21.45538 45.86719,25.47656 l -7.64453,12.74805 c -3.64551,-3.01182 -9.48667,-4.64063 -17.41992,-4.64063 -5.19644,0 -11.29127,0.81479 -18.25586,2.11719 -1.76321,0 -3.53309,0.81445 -5.3125,0.81445 -15.979,0 -32.6501,-14.14788 -50.7461,-41.29492 2.76526,-2.03501 6.54829,-1.79083 10.19336,-2.52344 3.06921,-0.814 6.34075,-1.05859 9.87891,-1.05859 z m 133.51367,17.3457 v 0.43946 c 1.23346,0 2.67886,3.8e-4 4.40039,1.05859 4.93555,2.11641 10.2704,3.01172 15.79102,3.01172 2.35255,0 4.73883,-4.5e-4 7.14258,-0.81445 33.18333,21.11526 52.57407,48.36026 58.60742,81.53906 l 56.05859,56.06052 c -9.04998,5.0469 -9.04998,14.9623 0,28.0352 2.40034,1.4652 4.37427,2.0351 6,2.0351 1.77941,0 3.14239,-0.8141 4.19336,-2.0351 2.01115,-2.5234 2.01115,-3.0939 0,-5.1289 -2.01108,-2.035 -4.09016,-5.6174 -5.0957,-7.6524 -1.00554,-2.035 1.07354,-4.0687 5.0957,-5.1269 7.03885,10.0529 9.65564,19.983 7.64453,28.0254 -2.01108,8.0586 -6.17096,12.7402 -10.19336,12.7402 -5.02778,0 -10.29423,-2.1171 -17.83593,-7.6523 -7.54167,-5.5353 -13.81572,-10.7297 -17.83789,-12.7403 l -2.54883,5.1289 c 3.0167,3.9886 6.1712,7.6517 10.19336,10.1914 -0.1278,-0.024 -0.26364,-0.033 -0.41016,-0.033 h -2.95703 c -0.54864,0 -1.12876,-0.057 -1.72852,0 -18.10002,-8.0586 -34.37307,-14.3175 -50.96484,-17.834 -16.59156,-3.5002 -27.09166,-9.7935 -33.125,-17.8359 -6.03331,-8.0586 -19.65494,-15.9299 -40.77148,-25.48631 -21.11676,-9.54826 -32.11946,-24.74574 -33.125,-45.86914 0,-22.11649 5.23343,-39.42978 15.28906,-53.50391 14.07775,-3.01181 20.38476,-9.29475 20.38476,-17.8418 0,-4.31422 0.78944,-6.26854 2.54883,-7.65234 0.89882,-0.81401 1.95589,-1.05859 3.24414,-1.0586 z m 55.68555,62.26368 v 0.21875 c -0.93317,0 -1.89037,0.0651 -2.8711,0 -11.56392,1.54661 -23.13932,6.75733 -38.22265,17.83593 h 7.64453 c 13.6009,7.57024 22.62788,11.50196 28.4082,11.50196 1.91201,0 3.46901,-0.81434 4.71875,-1.30274 5.02778,-3.50022 12.34037,-5.1289 20.38477,-5.1289 -2.76086,-15.63701 -9.99162,-23.125 -20.0625,-23.125 z m -219.46484,53.95117 c 9.04996,29.15765 8.54719,49.09275 0,61.15625 -8.54726,12.0635 -9.58576,18.9105 -2.54688,22.9316 l 17.83594,-17.8359 c 33.18345,-26.1458 64.65229,-40.3004 96.83008,-43.3203 -1.00562,27.1552 1.07541,55.4662 5.09765,86.6426 -0.99122,-0.065 -1.98071,0 -2.96875,0 -15.04843,0 -29.68797,7.0809 -42.89844,17.9316 -14.07778,11.567 -33.46856,19.4467 -58.60742,25.4785 4.02224,19.1047 8.71798,39.0398 12.74024,61.1563 -9.04995,9.0517 -22.13369,15.2949 -38.22266,15.2949 -16.08889,-33.1869 -28.63492,-58.2826 -35.67383,-71.3555 -9.04999,-16.0847 -14.35144,-27.0893 -20.38476,-33.1211 7.03893,-13.0729 14.41936,-29.8495 25.48047,-50.9648 l 17.83789,7.6504 5.0957,-33.1211 z m 132.50585,27.98635 20.38477,12.748 c 4.02224,84.4611 22.37248,169.8406 56.05859,254.8145 33.68614,84.9657 89.20855,157.8035 165.63086,219.1387 76.42234,61.3433 164.48704,104.787 267.55664,127.4082 51.24536,11.2495 102.13096,16.7851 152.45906,16.7851 50.8966,0 101.2225,-5.6984 150.7715,-16.7851 98.5447,-22.1246 181.8458,-66.1067 249.7207,-129.9571 67.8751,-63.8505 112.9304,-113.1379 135.0527,-150.3379 20.247,-34.0579 32.5294,-51.4121 39.0918,-51.4121 0.6105,0 1.1665,5e-4 1.6777,0.8145 6.0334,3.5002 -1.3139,24.9891 -22.9336,63.7031 -21.6194,38.714 -65.6693,91.1518 -135.0527,160.5293 -69.3833,69.3858 -156.3399,115.4828 -259.9121,137.6074 -51.786,11.0542 -104.1399,16.5899 -157.1856,16.5899 -53.0455,0 -106.7825,-5.5357 -161.33399,-16.5899 C 861.81908,1041.5826 767.04691,996.5284 690.62464,928.6486 614.20238,860.7769 559.68547,784.7574 524.99378,696.7717 490.30218,608.786 470.9463,515.5485 468.93518,419.0158 Z m -362.51171,99.666 v 0.01 c 18.60395,0 40.55272,4.0715 64.37695,12.4883 23.71014,8.3679 44.33542,12.9336 62.13086,12.9336 7.86475,0 15.17664,-0.8954 21.95703,-2.7676 2.96729,7.4074 5.17048,11.3711 6.52539,12.5351 L 84.161747,520.5959 c 6.706465,-1.5466 14.168183,-2.2793 22.261723,-2.2793 z M 588.6969,867.1662 c 4.02224,6.0236 7.7143,11.8121 12.74219,17.8438 l -249.7207,35.6699 v -30.5742 z m 35.67578,43.2813 c 0,0 5.23356,5.2098 15.28907,15.2871 L 351.71839,984.342 v -30.5742 z m 1044.20712,37.9902 v 0.1133 c 1.0468,0 2.0773,0.041 3.0859,0 9.5527,0.814 18.4766,5.6972 28.0293,12.7383 19.1056,14.0823 28.0293,34.0091 28.0293,61.1562 -7.2845,1.4652 -14.3045,2.1992 -21.0684,2.1992 -16.5796,0 -31.6138,-4.6413 -45.1836,-14.9629 -19.1054,-14.5788 -26.4181,-33.3977 -20.3847,-53.5117 8.5441,-4.9655 18.6237,-7.7324 27.4922,-7.7324 z M 441.65198,520.0178 v 0.018 c 4.25244,0 9.17814,0.8125 14.54102,0.8125 0,3.9886 -1.00554,9.2553 0,15.2871 l -33.125,-7.6504 c 2.51397,-2.5234 7.46107,-6.35 12.74023,-7.6524 1.75971,-0.814 3.71757,-0.8144 5.84375,-0.8144 z m -49.16211,31.1777 68.80078,15.2949 5.09571,25.4785 -91.73438,-17.8359 -5.0957,-15.2871 z m -12.74023,56.0605 94.28125,15.295 5.0957,22.9297 -119.76367,-15.2872 c 16.08888,-6.0236 22.39778,-13.8857 20.38672,-22.9375 z m -28.03125,53.5118 137.60156,15.2871 5.0957,17.8437 -142.69726,-10.1914 z m 0,56.0605 155.4375,7.6524 c 2.01116,8.0586 3.62229,15.36 7.64453,20.3906 l -163.08203,-2.5234 z m 0,56.0606 178.37109,2.5234 c 3.0167,6.0237 6.17113,11.8023 10.19336,17.834 l -188.56445,7.6523 z m 203.85351,48.416 c 3.01662,6.0236 7.71243,11.8041 12.74024,17.8359 l -216.59375,17.834 v -25.4785 z m 1183.004,41.873 c 10.0387,0 19.6056,3.826 29.9199,11.5997 18.603,14.0741 28.0293,36.548 28.0293,63.7031 -5.7591,1.2211 -11.2797,1.791 -16.6153,1.791 -17.0244,0 -32.1584,-5.9407 -47.0878,-17.0762 -19.6085,-14.5789 -27.4258,-30.8511 -20.3868,-50.957 4.7766,-2.7676 10.544,-6.4314 15.2891,-7.6524 3.711,-0.8954 7.311,-1.3828 10.8516,-1.3828 z"
     inkscape:connector-curvature="0"
     sodipodi:nodetypes="ccccscssssccccccccccccccccccccccccccccccccccccccccsccscsccscscccccccscccccsccccsccscccsccccsccccsccccscccccccccccccccccccccccccccccccsccccscccsccscccccsccsccccscccscccccsccccsccccccsccccccccccccccscscccccccsccccsccsccsccccssccccccsccccccccscccccccccscccccccccccccccscscsccccsccscccccscccccccccccccccccccscccccccccccccccccccccccccccccccccccccccccccccsccccc" />
</svg>
