<?xml version="1.0" encoding="UTF-8" standalone="no"?>
<!-- Created with Inkscape (http://www.inkscape.org/) -->

<svg
   xmlns:dc="http://purl.org/dc/elements/1.1/"
   xmlns:cc="http://creativecommons.org/ns#"
   xmlns:rdf="http://www.w3.org/1999/02/22-rdf-syntax-ns#"
   xmlns:svg="http://www.w3.org/2000/svg"
   xmlns="http://www.w3.org/2000/svg"
   xmlns:sodipodi="http://sodipodi.sourceforge.net/DTD/sodipodi-0.dtd"
   xmlns:inkscape="http://www.inkscape.org/namespaces/inkscape"
   width="1800"
   height="1650"
   viewBox="0 0 476.25001 436.56252"
   version="1.1"
   id="svg8"
   inkscape:version="0.92.2 (5c3e80d, 2017-08-06)"
   sodipodi:docname="US7036Z104.svg">
  <defs
     id="defs2" />
  <sodipodi:namedview
     id="base"
     pagecolor="#ffffff"
     bordercolor="#666666"
     borderopacity="1.0"
     inkscape:pageopacity="0.0"
     inkscape:pageshadow="2"
     inkscape:zoom="0.24748737"
     inkscape:cx="-292.62074"
     inkscape:cy="301.82548"
     inkscape:document-units="mm"
     inkscape:current-layer="layer1"
     showgrid="false"
     units="px"
     inkscape:window-width="1920"
     inkscape:window-height="1017"
     inkscape:window-x="-8"
     inkscape:window-y="-8"
     inkscape:window-maximized="1" />
  <metadata
     id="metadata5">
    <rdf:RDF>
      <cc:Work
         rdf:about="">
        <dc:format>image/svg+xml</dc:format>
        <dc:type
           rdf:resource="http://purl.org/dc/dcmitype/StillImage" />
        <dc:title></dc:title>
      </cc:Work>
    </rdf:RDF>
  </metadata>
  <g
     inkscape:label="Layer 1"
     inkscape:groupmode="layer"
     id="layer1"
     transform="translate(0,139.56253)">
    <path
       style="color:#000000;font-style:normal;font-variant:normal;font-weight:normal;font-stretch:normal;font-size:medium;line-height:normal;font-family:sans-serif;font-variant-ligatures:normal;font-variant-position:normal;font-variant-caps:normal;font-variant-numeric:normal;font-variant-alternates:normal;font-feature-settings:normal;text-indent:0;text-align:start;text-decoration:none;text-decoration-line:none;text-decoration-style:solid;text-decoration-color:#000000;letter-spacing:normal;word-spacing:normal;text-transform:none;writing-mode:lr-tb;direction:ltr;text-orientation:mixed;dominant-baseline:auto;baseline-shift:baseline;text-anchor:start;white-space:normal;shape-padding:0;clip-rule:nonzero;display:inline;overflow:visible;visibility:visible;opacity:1;isolation:auto;mix-blend-mode:normal;color-interpolation:sRGB;color-interpolation-filters:linearRGB;solid-color:#000000;solid-opacity:1;vector-effect:none;fill:#000000;fill-opacity:1;fill-rule:nonzero;stroke:none;stroke-width:14.70809555;stroke-linecap:round;stroke-linejoin:miter;stroke-miterlimit:4;stroke-dasharray:none;stroke-dashoffset:0;stroke-opacity:1;color-rendering:auto;image-rendering:auto;shape-rendering:auto;text-rendering:auto;enable-background:accumulate"
       d="m 456.97495,-134.37694 c -2.08814,-0.0685 -4.31298,0.21702 -6.55161,1.07438 -3.39516,1.30028 -6.38589,3.86383 -8.71761,7.31191 -1.21201,-0.59852 -2.10357,-1.06437 -4.10025,-1.93044 -3.14188,-1.36278 -7.56315,-2.97174 -12.73746,-1.331 -3.87992,1.2303 -6.97051,4.23977 -9.16382,8.24649 -0.94423,-0.41842 -1.1289,-0.54031 -2.4188,-1.03799 -3.0217,-1.16587 -7.38763,-2.40616 -12.25674,-0.86563 -3.72147,1.17742 -6.9059,3.91803 -9.39557,7.69302 -1.09248,-0.53311 -1.64253,-0.84942 -3.35527,-1.52635 -3.08585,-1.21964 -7.8513,-2.46497 -12.7298,-0.24322 -3.62251,1.64976 -6.24815,4.71141 -8.18136,8.72336 -0.88109,-0.34786 -0.99513,-0.44612 -2.15642,-0.82733 -3.02093,-0.99167 -7.59681,-1.90369 -12.24144,0.22215 -3.28778,1.50482 -5.83397,4.25243 -7.80217,7.80601 -0.81254,-0.36915 -0.85749,-0.47545 -1.90363,-0.85605 -3.07573,-1.11902 -8.14917,-1.91618 -12.68956,0.68177 -2.89553,1.656792 -5.01559,4.228137 -6.74313,7.463216 -0.58192,-0.322278 -1.00567,-0.626928 -1.67572,-0.938407 -3.24378,-1.507887 -9.38265,-2.404847 -13.89417,1.034163 -3.46967,2.644834 -5.42262,6.311806 -6.87335,11.249395 -1.0526,-0.288185 -1.4356,-0.434408 -2.84971,-0.720084 -3.12963,-0.632253 -7.9219,-1.146367 -12.26631,2.045345 -2.7391,2.012337 -4.31342,4.946869 -5.22444,8.340332 -0.61998,-0.149627 -0.64227,-0.211435 -1.33867,-0.34472 -3.15953,-0.604716 -8.06654,-0.883879 -12.28547,2.344102 -2.99337,2.290279 -4.71433,5.630315 -5.64959,9.613885 -0.6814,-0.09233 -0.67106,-0.135615 -1.47656,-0.208747 -2.95166,-0.267986 -7.39889,-0.155002 -11.26472,2.857353 -2.83339,2.207862 -4.5997,5.44746 -5.56723,9.284485 -0.59182,-0.02739 -0.48155,-0.06219 -1.19121,-0.07086 -2.74621,-0.03353 -6.84264,0.436923 -10.36461,3.228887 -2.75071,2.180567 -4.62108,5.372749 -5.77791,9.219371 -0.84395,0.0015 -1.03674,-0.03362 -2.36325,0.04405 -2.67562,0.156643 -6.64815,0.830863 -9.92988,3.835978 -2.60131,2.382051 -4.14219,5.742499 -4.88162,9.613886 -0.52016,0.08726 -0.31287,0.02264 -1.00927,0.145548 -2.29156,0.40444 -5.60264,1.32111 -8.56441,3.763205 -2.54126,2.095365 -4.43131,5.273069 -5.79705,9.014452 -0.56552,0.107376 -1.19919,0.207438 -2.89949,0.628159 -2.26736,0.5610307 -5.50218,1.7402067 -8.1584,4.4449854 -1.9957,2.0321838 -3.27183,4.84607355 -4.19028,7.9649701 -0.75416,0.065893 -0.84983,0.01894 -2.15833,0.2393895 -2.56588,0.4322787 -6.39105,1.7673418 -9.09105,4.9869637 -2.04383,2.4371603 -3.05439,5.6319503 -3.65979,9.1848983 -0.83764,0.121846 -1.13914,0.129641 -2.55477,0.434731 -2.57758,0.555507 -6.41202,1.872396 -9.07192,5.417865 -1.72966,2.305539 -2.55495,5.106779 -2.81138,8.152651 -2.61096,0.599963 -5.9042,2.05839 -8.25224,4.981218 -2.05335,2.556005 -3.25092,5.942281 -4.11366,9.891577 -0.80507,0.09817 -0.993,0.05046 -2.38242,0.375362 -2.64605,0.618763 -6.63209,2.536322 -8.83251,6.266256 -1.42711,2.419087 -1.91686,5.2244 -2.07599,8.242669 -0.29404,0.04653 -0.19634,-0.0073 -0.51133,0.05165 -2.80163,0.529613 -7.0467,2.498523 -9.31705,6.379254 -1.77719,3.03777 -2.19668,6.660203 -2.12386,10.728478 -0.72192,0.250751 -0.88368,0.274198 -2.05109,0.746893 -2.2979,0.930455 -5.6172,2.665503 -7.75814,6.275834 -1.623135,2.73716 -2.17245,6.028368 -1.897878,9.495154 -0.398205,0.195017 -0.232231,0.08951 -0.725828,0.335144 -2.005115,0.997998 -4.846703,2.739187 -6.917402,5.866003 -1.674466,2.52849 -2.412784,5.81337 -2.593068,9.34769 -0.595115,0.29069 -1.092695,0.51245 -2.506887,1.28696 -2.028017,1.11066 -4.890141,3.00437 -6.706738,6.44436 -1.378069,2.60957 -1.84414,5.72507 -1.55316,8.96274 -0.452223,0.25323 -0.307179,0.14232 -0.921171,0.49602 -1.913913,1.10252 -4.615858,2.9932 -6.461603,6.21073 -1.57033,2.73741 -2.100892,6.20052 -1.959165,9.8839 -0.420098,0.31609 -0.996686,0.73471 -2.296225,1.69872 -1.655222,1.22786 -3.922342,3.03438 -5.553836,6.08049 -1.354307,2.52857 -1.891101,5.78141 -1.568481,9.06616 -0.463737,0.39134 -0.962216,0.80872 -2.14493,1.75808 -1.592431,1.27824 -3.743024,3.01997 -5.352751,6.05177 -1.263565,2.37982 -1.774577,5.57722 -1.359733,8.69846 -0.441414,0.3599 -0.523134,0.42435 -1.38463,1.11459 -1.559912,1.24984 -3.722924,3.06726 -5.312533,6.07093 -1.408335,2.66113 -1.955158,6.19142 -1.463148,9.70772 -0.35765,0.46257 -1.153618,1.33408 -2.357508,2.56242 -1.32059,1.34742 -3.010784,2.97312 -4.414345,5.64194 -1.145565,2.17825 -1.740678,5.47082 -1.131833,8.59312 -0.378618,0.47813 -0.952992,1.16996 -2.020448,2.28474 -1.311038,1.36915 -2.971502,2.95212 -4.408599,5.58257 -1.142598,2.09139 -1.809041,5.55331 -1.055229,8.75783 -0.32059,0.40381 -0.533568,0.70525 -1.336751,1.57997 -1.193447,1.29973 -2.777372,2.90624 -4.176868,5.35849 -1.248546,2.18774 -2.178591,5.54615 -1.593377,8.96275 -0.253179,0.43743 -0.951798,1.39488 -1.978316,2.65243 -1.081296,1.32466 -2.456207,2.88539 -3.661703,5.23401 -0.969523,1.88889 -1.722431,4.75966 -1.294619,7.71793 -0.369218,0.43451 -0.832976,0.9741 -1.828936,2.02811 -1.2887,1.36378 -3.0075525,3.07046 -4.276455,5.99814 -1.1417054,2.63419 -1.2268986,6.61162 0.1398035,9.88391 -0.076461,0.19129 -0.2010607,0.55934 -0.7028477,1.3674 -1.2311222,1.98255 -3.7625611,4.68159 -5.4868085,9.09488 0.1431677,5.83381 0.7566542,10.26735 4.1275545,9.64218 3.1244581,-0.57944 4.7986452,-0.50175 9.5712742,-4.28942 0.29336,-0.75087 2.234953,-3.38961 4.284115,-6.68951 1.024581,-1.64995 2.116164,-3.57308 2.707975,-6.17432 0.499471,-2.1954 0.373295,-5.02507 -0.628159,-7.59728 0.211988,-0.28292 0.278017,-0.41866 0.953729,-1.13375 1.041415,-1.10209 2.527325,-2.4391 3.994933,-4.68821 1.26083,-1.9322 2.354044,-5.35362 1.750415,-8.74823 0.246887,-0.39717 0.79503,-1.18075 1.744671,-2.34411 1.072876,-1.31435 2.456282,-2.89374 3.680856,-5.20147 1.10614,-2.08454 2.001637,-5.24632 1.386543,-8.56631 0.259387,-0.41156 1.000907,-1.34171 2.120034,-2.56051 1.180958,-1.28614 2.70733,-2.75648 4.073453,-5.26848 1.101814,-2.02601 1.741362,-5.47202 0.961389,-8.62186 0.324004,-0.41194 0.648045,-0.85681 1.555074,-1.80404 1.238484,-1.29338 2.847472,-2.80439 4.339655,-5.19762 1.320056,-2.11718 2.407223,-5.79324 1.530177,-9.38025 0.214829,-0.28975 0.616962,-0.83874 1.578056,-1.81936 1.158303,-1.18183 2.720986,-2.60292 4.232408,-4.81843 1.51142,-2.21551 3.034586,-5.95373 2.154506,-9.89158 -0.253586,-1.13465 -0.123618,-0.87701 -0.07086,-0.97671 0.05277,-0.0996 0.467275,-0.63607 1.509111,-1.47081 1.041836,-0.83473 2.626276,-1.77103 4.464137,-3.90875 1.837861,-2.13773 3.455438,-6.88906 2.259838,-10.6289 -0.0098,-0.0303 -0.0048,0.006 -0.01341,-0.019 0.06979,-0.0746 0.389927,-0.50803 1.39612,-1.3157 1.129123,-0.90633 2.794906,-1.96771 4.634582,-4.01983 1.839677,-2.0521 3.80706,-6.27024 2.943535,-10.28608 -0.27312,-1.27015 -0.110612,-1.0339 -0.105337,-1.04374 0.0053,-0.01 0.325796,-0.45288 1.352073,-1.21418 1.026277,-0.76131 2.638244,-1.65983 4.544571,-3.5602 1.906327,-1.90038 4.021807,-5.86735 3.564032,-9.77094 -0.258248,-2.20215 0.08293,-2.64711 0.139803,-2.74627 0.05688,-0.0992 0.153096,-0.26912 1.045654,-0.78328 0.892558,-0.51416 2.41976,-0.97983 4.68246,-2.77884 2.262701,-1.79901 4.592454,-6.94484 3.721072,-10.68443 -0.474399,-2.0359 -0.140778,-2.10686 -0.264286,-1.87298 -0.123509,0.23388 -0.177175,0.10478 0.766046,-0.41175 0.943221,-0.51657 2.609507,-1.07695 4.866311,-2.62945 2.256806,-1.55252 5.267156,-5.67514 5.057816,-9.83222 -0.11582,-2.30028 0.27303,-2.79666 0.37537,-2.95119 0.10233,-0.15453 0.25703,-0.349 1.20652,-0.82159 0.94949,-0.47258 2.50571,-0.82238 4.91802,-2.53752 1.20616,-0.85758 2.72549,-2.30286 3.61574,-4.4067 0.89025,-2.103816 0.91489,-4.498431 0.50176,-6.369661 -0.53283,-2.413458 -0.10495,-2.533985 -0.31407,-2.181317 -0.20913,0.352656 -0.37924,0.264269 0.62815,-0.143644 1.00739,-0.407901 2.74697,-0.730919 5.28573,-2.047259 1.26938,-0.658163 2.89276,-1.694187 4.20367,-3.617646 1.31092,-1.923471 1.89024,-4.620418 1.67764,-6.796753 -0.27916,-2.857687 -0.0629,-4.054915 0.0728,-4.628832 0.61276,-0.04042 1.59261,0.06448 4.05814,-0.409842 1.39621,-0.268604 3.64101,-0.863915 5.56725,-3.035463 1.92623,-2.171535 2.42838,-5.248602 2.2311,-7.311907 -0.22987,-2.404201 -0.0713,-3.425303 0.0421,-3.943229 0.68149,-0.104897 1.94095,-0.09549 4.39136,-0.714337 1.33635,-0.337514 3.14682,-0.955868 4.86631,-2.524118 1.7195,-1.568264 2.894,-4.048225 3.19824,-6.195411 0.56193,-3.965782 1.50971,-5.555513 1.75042,-5.860251 0.36139,-0.05366 1.20497,0.269419 4.22857,-0.338977 1.51703,-0.305244 4.23522,-1.405704 5.82771,-3.843638 1.59248,-2.437934 1.58787,-4.852656 1.39229,-6.586086 -0.29859,-2.646339 0.0844,-2.792096 -0.0728,-2.54136 0.1066,-0.02851 0.10331,-0.03174 0.40025,-0.09576 1.05134,-0.226579 2.87884,-0.236763 5.65726,-1.043738 1.38922,-0.40349 3.20734,-1.090074 4.91802,-2.78075 1.71068,-1.690677 2.81653,-4.386373 2.95886,-6.65503 0.20437,-3.257764 0.90381,-4.12959 0.85031,-4.065793 -0.0535,0.0638 -0.52561,0.198512 0.2662,0.06512 0.79181,-0.133398 2.36256,2.05e-4 5.14783,-0.653054 1.39265,-0.326631 3.28257,-0.983976 4.99654,-2.566258 1.71396,-1.582278 2.82264,-3.958822 3.16569,-6.0211251 0.41338,-2.4851402 0.96726,-3.0391298 1.08778,-3.1618566 0.12052,-0.1227281 0.18965,-0.2233143 1.19887,-0.4730347 1.00922,-0.2497191 2.72417,-0.3415045 5.32402,-1.279298 2.59985,-0.9377923 6.32489,-3.99313776 7.41916,-7.7926084 0.73905,-2.5660621 1.4426,-3.2249168 1.77723,-3.5008333 0.33463,-0.2759165 0.65242,-0.4300892 1.76382,-0.6262426 1.11142,-0.1961547 2.75704,-0.073464 5.65151,-1.0935318 1.44723,-0.5100305 3.35496,-1.5396925 4.78205,-3.3380495 1.42708,-1.798354 2.09271,-4.046913 2.23877,-5.957927 0.22618,-2.959214 0.82169,-3.213766 0.5956,-3.006733 -0.22609,0.207034 -0.33357,0.06772 0.85605,-0.002 1.18964,-0.06964 3.05406,0.21341 6.01731,-0.216408 1.48161,-0.214909 3.46332,-0.681478 5.41403,-2.210044 1.95071,-1.528568 3.32583,-4.111168 3.7249,-6.340951 0.57464,-3.210768 1.32357,-3.698974 1.26206,-3.650212 -0.0614,0.04876 -0.10563,-0.0639 1.04948,-0.04979 1.15515,0.0141 2.83502,0.467323 5.90431,0.233644 1.53463,-0.11684 3.80687,-0.510475 5.93303,-2.29431 2.12616,-1.783834 3.20739,-4.619818 3.41274,-6.777597 0.25239,-2.652207 0.60561,-3.215089 0.67603,-3.322727 0.13643,-0.0048 0.36227,-0.02044 0.94608,0.03256 1.33303,0.121028 3.20322,0.724153 6.2835,0.81967 1.54013,0.04776 3.79773,0.03394 6.31029,-1.664236 2.51258,-1.698169 3.91047,-5.021756 4.07921,-7.359793 0.16822,-2.330877 0.47772,-3.349841 0.67986,-3.843639 0.15424,0.01762 0.19479,0.01391 0.62241,0.09576 1.39453,0.266902 3.32677,1.09248 6.32947,1.612528 1.50135,0.260023 3.68262,0.741481 6.71248,-0.842651 3.02986,-1.584133 4.68936,-5.545703 4.77821,-7.959225 0.063,-1.712457 0.25691,-2.435885 0.39452,-2.943534 0.18344,0.0217 0.16238,0.0016 0.46729,0.0632 1.56986,0.317147 3.77916,1.209059 6.91932,1.70637 1.57007,0.248655 3.6228,0.554441 6.35627,-0.574536 2.73347,-1.128976 5.10787,-4.377897 5.663,-6.965278 0.78424,-3.655321 1.57117,-5.383151 2.10279,-6.373507 0.99822,0.580068 2.28827,1.546434 4.56372,2.790324 1.31524,0.718982 3.05068,1.910991 6.5363,1.480384 3.48561,-0.430607 6.65052,-4.010653 7.43448,-6.4233 1.34873,-4.150751 2.49593,-5.135167 2.55284,-5.214863 0.0681,0.04076 0.0802,0.06305 0.48071,0.208747 1.14301,0.415854 2.80885,1.541253 5.77216,2.577748 1.48164,0.518247 3.69574,1.236115 6.72779,0.289181 3.03208,-0.946931 5.33764,-3.905165 6.13796,-6.172419 1.34177,-3.801163 2.35589,-4.15394 2.2177,-4.090689 -0.13819,0.06324 0.0569,-0.106985 1.5321,0.377278 1.47521,0.484263 3.34832,1.597705 6.51331,2.416877 1.5825,0.409586 3.88912,0.88022 6.74887,-0.245135 2.85975,-1.125355 4.9709,-4.029863 5.71088,-6.337125 1.3327,-4.155378 2.42561,-4.491948 2.04916,-4.320508 -0.37643,0.17144 -0.31636,-0.0721 1.22759,0.53815 1.54397,0.61023 3.57966,1.929 6.73164,2.99716 1.57599,0.534081 3.70644,1.161518 6.58226,0.46155 2.87582,-0.69998 5.57503,-3.28549 6.67419,-5.64769 1.61103,-3.46232 2.50276,-3.60207 2.60647,-3.63489 0.10367,-0.0328 0.82264,-0.0923 2.52605,0.56496 1.70338,0.65723 3.66608,1.92848 6.95378,2.85927 1.64384,0.4654 4.04329,0.97558 6.95187,-0.14363 2.90857,-1.11921 5.02027,-3.97614 5.81812,-6.28733 1.2805,-3.70935 1.93037,-3.44369 1.59721,-3.33804 -0.33317,0.10564 0.50678,-0.0333 2.43794,0.80434 1.93116,0.83765 4.2475,2.34396 7.59343,3.47594 1.67298,0.56598 3.85094,1.18935 6.75845,0.50942 2.90752,-0.67994 5.71724,-3.26364 6.87719,-5.72045 1.34292,-2.84438 2.26637,-3.23742 2.70415,-3.40508 0.43777,-0.16767 1.13323,-0.21558 2.39771,0.203 2.529,0.83717 5.53278,3.40699 5.53278,3.40699 2.90851,2.90509 7.63358,2.86214 10.48882,-0.0953 2.85523,-2.95747 2.73198,-7.68112 -0.27359,-10.48568 0,0 -4.37029,-4.55246 -11.12683,-6.78908 -1.68913,-0.55916 -3.63997,-0.98094 -5.72811,-1.04949 z m -128.91797,43.170552 c 0.35021,0.110356 0.38115,0.236983 0.22789,0.15321 -0.0331,-0.01805 -0.18477,-0.126413 -0.22789,-0.15321 z"
       inkscape:connector-curvature="0"
       id="path821"
       sodipodi:nodetypes="cccssccscsccsscssccscssccscssccscsccccccscssccccscccccccssccsccsccsccsccsccsccscccccccssccscccsccsccsccsccscccccsscccccccsccsscccscccsccccccsscscccscccccssccccscccssscscccccccscssccsssccccccccsccccssccsscccccsccsssscsccccccccccsccccsccccccc" />
  </g>
</svg>
