<?xml version="1.0" encoding="UTF-8" standalone="no"?>
<svg
   width="1630"
   height="1800"
   version="1.1"
   id="svg838"
   sodipodi:docname="US7036S3VARA.svg"
   inkscape:version="1.1 (c68e22c387, 2021-05-23)"
   xmlns:inkscape="http://www.inkscape.org/namespaces/inkscape"
   xmlns:sodipodi="http://sodipodi.sourceforge.net/DTD/sodipodi-0.dtd"
   xmlns="http://www.w3.org/2000/svg"
   xmlns:svg="http://www.w3.org/2000/svg">
  <defs
     id="defs842" />
  <sodipodi:namedview
     id="namedview840"
     pagecolor="#ffffff"
     bordercolor="#666666"
     borderopacity="1.0"
     inkscape:pageshadow="2"
     inkscape:pageopacity="0.0"
     inkscape:pagecheckerboard="0"
     showgrid="false"
     inkscape:zoom="0.091973461"
     inkscape:cx="-2701.8663"
     inkscape:cy="2604.012"
     inkscape:window-width="2560"
     inkscape:window-height="1537"
     inkscape:window-x="-8"
     inkscape:window-y="-8"
     inkscape:window-maximized="1"
     inkscape:current-layer="svg838" />
  <path
     id="path2752-1-6-9"
     style="color:#000000;fill:#000000;stroke-linecap:round;-inkscape-stroke:none"
     d="m 576.65185,1235.2384 a 35,35 0 0 0 -35,35 35,35 0 0 0 35,35 h 238.33399 a 35,35 0 0 0 35,-35 35,35 0 0 0 -35,-35 z m 0,125.0091 a 35,35 0 0 0 -35,35 35,35 0 0 0 35,35 h 238.33399 a 35,35 0 0 0 35,-35 35,35 0 0 0 -35,-35 z m 0,125.0091 a 35,35 0 0 0 -35,35 35,35 0 0 0 35,35 h 238.33399 a 35,35 0 0 0 35,-35 35,35 0 0 0 -35,-35 z m 1.88149,125.0091 a 35,35 0 0 0 -35,35 35,35 0 0 0 35,35 h 238.33399 a 35,35 0 0 0 35,-35 35,35 0 0 0 -35,-35 z m 516.26856,105.7879 H 215.20379 C 461.84948,1299.4423 378.31284,1041.101 377.23969,929.89593 H 294.65113 C 307.77557,1172.3461 343.67122,1437.8572 84.243183,1726.9439 L 6.565646,1798.4768 H 1176.9326 l 0.1497,-41.0279 z M 1534.8714,7.752396 c -4.0487,0 -8.1793,0.1862453 -12.3903,0.5578464 L 1068.6334,816.91559 c -15.8551,26.42506 -32.3717,39.63799 -49.548,39.63799 -1.8605,0.24258 -3.8427,0.3629 -5.9472,0.3629 -66.64099,0 -255.57937,-121.67591 -566.81456,-365.02854 C 374.9761,417.89757 337.98165,343.90711 335.33919,269.91712 c -2.64252,-73.98998 19.4871,-116.26963 66.39146,-126.83964 14.15985,-3.19095 26.93508,-4.78513 38.32541,-4.78513 26.34006,0 45.27597,8.53126 56.80576,25.59532 16.51562,24.44317 15.52497,48.88573 -2.9726,73.32884 -9.24876,12.22153 -17.67191,18.33365 -25.2691,18.33365 -7.59719,0 -14.36848,-6.11213 -20.31411,-18.33365 -11.89121,-24.44308 -24.44315,-36.66346 -37.65561,-36.66346 -25.10378,9.24873 -31.05012,31.04876 -17.83758,65.40124 12.26872,31.89874 34.79,47.8474 67.56507,47.8474 2.52121,0 5.10356,-0.093 7.74616,-0.28181 36.99492,-2.64246 62.75982,-15.19441 77.29359,-37.65562 14.53378,-22.46125 21.80042,-48.88724 21.80042,-79.27597 0,-30.38875 -9.90929,-56.81279 -29.72801,-79.27406 -19.81883,-22.461193 -48.55584,-36.664944 -86.21142,-42.610595 -7.06042,-1.114794 -14.12039,-1.67161 -21.1808,-1.67161 -30.59522,0 -61.19081,10.466091 -91.78603,31.399615 -37.65558,25.76441 -59.45752,68.04404 -65.40317,126.83965 -5.94566,58.79562 10.2415,123.53641 48.55775,194.22325 38.31625,70.68693 107.35147,141.70556 207.10584,213.05299 99.75438,71.34753 194.55255,139.39202 284.39752,204.13324 2.1141,8.45594 -2.53638,12.68377 -13.95196,12.68377 -2.85389,0 -6.12932,-0.2646 -9.82891,-0.79334 H 281.82839 c 4.73671,27.08813 8.50061,50.01101 12.82274,75.32473 h 86.28478 707.51549 l 447.9025,-844.29209 23.7828,9.909981 -465.3348,1620.539779 82.1307,82.4232 L 1629.5027,59.838665 C 1605.555,25.114626 1574.0108,7.752396 1534.8714,7.752396 Z" />
</svg>
