<?xml version="1.0" encoding="UTF-8" standalone="no"?>
<svg
   xmlns:dc="http://purl.org/dc/elements/1.1/"
   xmlns:cc="http://creativecommons.org/ns#"
   xmlns:rdf="http://www.w3.org/1999/02/22-rdf-syntax-ns#"
   xmlns:svg="http://www.w3.org/2000/svg"
   xmlns="http://www.w3.org/2000/svg"
   xmlns:sodipodi="http://sodipodi.sourceforge.net/DTD/sodipodi-0.dtd"
   xmlns:inkscape="http://www.inkscape.org/namespaces/inkscape"
   width="1550"
   height="1800"
   version="1.1"
   id="svg827"
   sodipodi:docname="US7036A63VARA.svg"
   inkscape:version="0.92.2 (5c3e80d, 2017-08-06)">
  <metadata
     id="metadata833">
    <rdf:RDF>
      <cc:Work
         rdf:about="">
        <dc:format>image/svg+xml</dc:format>
        <dc:type
           rdf:resource="http://purl.org/dc/dcmitype/StillImage" />
        <dc:title></dc:title>
      </cc:Work>
    </rdf:RDF>
  </metadata>
  <defs
     id="defs831" />
  <sodipodi:namedview
     pagecolor="#ffffff"
     bordercolor="#666666"
     borderopacity="1"
     objecttolerance="10"
     gridtolerance="10"
     guidetolerance="10"
     inkscape:pageopacity="0"
     inkscape:pageshadow="2"
     inkscape:window-width="1920"
     inkscape:window-height="1017"
     id="namedview829"
     showgrid="false"
     inkscape:zoom="0.18446181"
     inkscape:cx="314.62939"
     inkscape:cy="397.88132"
     inkscape:window-x="-8"
     inkscape:window-y="-8"
     inkscape:window-maximized="1"
     inkscape:current-layer="svg827" />
  <path
     id="path859"
     style="color:#000000;font-style:normal;font-variant:normal;font-weight:normal;font-stretch:normal;font-size:medium;line-height:normal;font-family:sans-serif;font-variant-ligatures:normal;font-variant-position:normal;font-variant-caps:normal;font-variant-numeric:normal;font-variant-alternates:normal;font-feature-settings:normal;text-indent:0;text-align:start;text-decoration:none;text-decoration-line:none;text-decoration-style:solid;text-decoration-color:#000000;letter-spacing:normal;word-spacing:normal;text-transform:none;writing-mode:lr-tb;direction:ltr;text-orientation:mixed;dominant-baseline:auto;baseline-shift:baseline;text-anchor:start;white-space:normal;shape-padding:0;clip-rule:nonzero;display:inline;overflow:visible;visibility:visible;opacity:1;isolation:auto;mix-blend-mode:normal;color-interpolation:sRGB;color-interpolation-filters:linearRGB;solid-color:#000000;solid-opacity:1;vector-effect:none;fill:#000000;fill-opacity:1;fill-rule:nonzero;stroke:none;stroke-width:40;stroke-linecap:butt;stroke-linejoin:miter;stroke-miterlimit:4;stroke-dasharray:none;stroke-dashoffset:0;stroke-opacity:1;color-rendering:auto;image-rendering:auto;shape-rendering:auto;text-rendering:auto;enable-background:accumulate"
     d="m 1502.2246,202.62305 -350.5019,450.21093 15.7812,12.28706 366.2852,-437.92573 z m -133.7246,-68.9375 -247.4849,507.52716 35.7603,16.22284 247.6562,-506.16993 z M 925.91797,3.8535156 c -4.53285,0 -9.49092,1.1989021 -14.87109,3.59375 -11.95599,5.3884084 -17.3362,10.7663144 -16.14063,16.1347654 0.97829,4.390554 4.7591,6.585938 11.33984,6.585938 h 4.80079 3.75781 c 5.68091,0 4.7281,2.79288 -2.85938,8.380859 -8.967,6.585832 -11.95774,23.027457 -8.96875,49.324219 2.98904,26.303413 12.8534,40.648913 29.5918,43.037113 l -5.38086,10.76757 c -10.76043,15.5399 -23.91031,37.05971 -39.45312,64.56055 -8.36923,16.73733 -8.66962,26.59903 -0.89844,29.58594 7.77138,2.99356 12.85294,6.87986 15.24414,11.65625 -5.97794,2.39485 -8.07069,5.68793 -6.27735,9.87891 1.79341,4.19098 5.08286,6.28515 9.86524,6.28515 1.19563,0 -0.29978,2.09612 -4.48438,6.28711 -4.1846,4.19098 -3.58719,7.48406 1.79297,9.87891 5.38023,2.39485 8.07032,10.7661 8.07032,25.11523 l -19.72657,52.00781 c -10.7161,10.71695 -20.83584,16.07618 -30.36133,16.07618 -2.16487,0 -4.299,-0.33281 -6.40234,-0.99805 -1.95833,-0.66523 -3.80202,-0.99805 -5.5293,-0.99805 -8.29099,0 -13.92032,5.93805 -16.88867,17.8125 11.45784,9.95858 23.01825,14.9375 34.6836,14.9375 16.33161,0 32.86708,-9.76245 49.60546,-29.28711 l 30.35352,-41.07226 c -0.308,0.66523 1.86306,0.99804 6.51172,0.99804 h 9.76367 c 0.51955,-0.0266 1.02875,-0.0391 1.52734,-0.0391 10.96382,0 16.73086,6.28954 17.30274,18.86914 0.59805,13.15171 -0.89534,25.10954 -4.48242,35.87305 h 1.79297 C 909.85236,390.30289 858.44162,404.04894 824.96484,430.3457 791.48798,456.64912 718.55642,508.06194 606.16992,584.58398 591.82273,570.23485 511.71677,527.78963 365.85352,457.24805 338.35468,420.18777 321.61665,399.86492 315.63867,396.2793 l 41.24805,-215.2168 -46.62891,-5.38867 -39.45508,202.65429 -44.83398,-16.13476 c -9.56486,16.73733 -7.17341,30.48844 7.17383,41.25195 -34.6724,60.9755 -31.08627,99.83104 10.75976,116.56836 L 0,1799.9902 H 50.214844 L 290.53125,526.67969 c 11.95602,0 31.68284,0.5975 59.18164,1.79492 37.06361,22.7178 79.80671,55.89766 128.22852,99.53711 48.42188,43.63945 101.92532,67.84976 160.50976,72.63281 L 889.52734,558.9707 c 37.06367,135.10269 52.00758,226.26516 44.83399,273.49024 -7.1736,47.22507 -11.35711,79.20603 -12.55274,95.94336 l -360.47461,30.49609 43.04297,60.96871 c -19.12958,3.5923 -43.63929,10.7666 -73.52929,21.5235 -54.99766,21.5203 -83.69276,69.3435 -86.08399,143.4707 -20.32515,106.4111 -35.86847,205.9436 -46.6289,298.5976 -10.76045,92.6607 -31.38329,153.3409 -61.8711,182.0391 -30.4878,28.6917 -78.01375,53.798 -142.57617,75.3184 -35.86805,9.566 -53.20535,29.2925 -52.00977,59.1816 h 317.4336 c 34.67246,-3.5923 54.10061,-14.0534 58.28515,-31.3828 4.18467,-17.336 1.79322,-36.4651 -7.17382,-57.3867 -8.96701,-20.9284 -14.04858,-43.6451 -15.24414,-68.1524 -1.19556,-24.5072 14.34774,-80.4007 46.6289,-167.6797 35.86804,-69.3441 55.89351,-127.6315 60.07813,-174.8632 4.1846,-47.2251 15.84309,-76.2158 34.97265,-86.9727 v 586.4277 h 701.2188 v -633.0683 h 57.3886 V 933.77344 c 0,-4.85622 -0.3465,-9.45368 -1.041,-13.79102 11.6004,3.19313 21.5123,4.79102 29.7363,4.79102 19.1296,0 28.6934,-10.76089 28.6934,-32.28125 0,-84.89071 -13.4505,-151.54625 -40.3516,-199.96875 -26.9012,-48.4225 -45.4331,-102.22495 -55.5957,-161.4043 -9.0016,-52.42057 -22.4578,-87.95617 -40.3711,-106.60937 l 154.4347,-243.65305 -31.4336,-15.91406 -151.3975,239.78 c -16.0272,-8.08261 -33.4551,-12.94671 -52.2852,-14.58985 V 241.2832 c 0,-142.273927 -52.6074,-213.410153 -157.8203,-213.410153 -77.714,0 -124.34196,25.104429 -139.88478,75.316403 -4.78237,-8.368658 -3.28893,-19.127587 4.48242,-32.279294 C 950.20302,57.75845 953.79115,45.803734 953.19336,35.046875 952.59531,24.283364 948.40978,15.615496 940.63867,9.0429688 936.3644,5.5837439 931.4581,3.8535156 925.91797,3.8535156 Z M 1077.834,56.810547 c 86.0833,0 129.125,62.171743 129.125,186.517573 V 481.8457 H 1081.4219 V 266.63867 c 25.1075,-16.73732 37.3613,-42.74093 36.7636,-78.01172 -0.4058,-23.91522 -9.1972,-35.87304 -26.373,-35.87304 -8.1514,0 -18.1907,2.69362 -30.1191,8.08203 -13.1517,-20.3296 -47.2271,-36.4715 -102.22465,-48.42578 C 976.20713,75.34323 1015.6627,56.810547 1077.834,56.810547 Z M 961.92188,148.71289 c 7.37875,0 14.93084,2.26155 22.65624,6.78516 14.34729,8.36866 29.29128,13.15218 44.83398,14.34961 v -7.18555 c 10.7604,5.98712 19.7267,14.35526 26.9004,25.10547 11.1859,-5.85408 20.1462,-8.7793 26.8809,-8.7793 9.8213,0 14.9109,6.20584 15.2656,18.61914 0.5987,20.92166 -13.4512,36.76383 -42.1465,47.52735 v 263.62304 h 168.1094 l -85.6114,139.88867 c -11.9559,-5.98712 -35.8682,-14.95471 -71.7363,-26.90234 -7.1736,13.15171 -5.3816,27.50228 5.3789,43.04883 -10.7603,3.59227 -14.944,29.29615 -12.5527,77.11328 1.1954,8.36867 4.7816,14.34602 10.7598,17.93164 l -14.3457,23.31055 30.4863,19.72656 14.3476,-26.89258 c 3.587,2.39486 19.1303,8.37221 46.6289,17.93164 -1.1954,34.67208 -1.7929,59.18407 -1.7929,73.53321 L 961.26367,908.6875 c 1.19556,-22.71779 2.98772,-47.82417 5.37891,-75.31836 5.978,-53.80425 -7.77124,-151.24692 -41.24805,-292.33008 L 885.93945,517.72852 625.89648,662.99609 C 579.26805,658.2064 534.13557,635.78741 490.49609,595.74023 446.85669,555.6864 401.72218,523.70544 355.09375,499.79688 l 7.17383,-10.76563 c 138.68969,66.95596 221.78433,111.79197 249.2832,134.50977 123.14679,-86.08148 198.16925,-140.78115 225.07031,-164.09766 26.90096,-23.31651 84.58996,-34.97461 173.06441,-34.97461 0,-77.59307 -12.59152,-116.38867 -37.77144,-116.38867 -1.97847,0 -4.03415,0.33281 -6.16797,0.99804 -5.6529,1.26395 -10.64892,1.89454 -14.98828,1.89454 -18.1463,0 -24.80679,-11.09486 -19.98242,-33.28711 19.12959,-9.56609 26.00323,-17.04012 20.62305,-22.42188 -5.38023,-5.3884 -15.83997,-8.08398 -31.38282,-8.08398 1.19564,-9.55944 -5.38132,-17.32813 -19.72851,-23.3086 14.34719,-33.47465 28.69383,-56.78774 43.04101,-69.93945 6.07001,-3.32618 12.26912,-4.99023 18.59376,-4.99023 z m 2.53124,8.12305 c -5.55058,0 -10.79865,1.32929 -15.74414,3.99023 l -14.34765,12.55274 1.79492,10.75781 5.37891,-1.79688 c 8.967,4.7897 18.38241,7.18555 28.24609,7.18555 9.86375,0 20.17713,-2.39585 30.93755,-7.18555 l 25.1074,7.18555 v -14.34961 h -21.5215 c -14.67333,-12.22703 -27.95731,-18.33984 -39.85158,-18.33984 z m -49.17382,94.74609 c 1.24339,0 2.82338,0.33085 4.73632,0.99609 4.78245,1.19742 10.46135,2.0966 17.03711,2.69532 6.57579,0.66523 9.26588,1.56246 8.07032,2.69336 h -30.48828 c -2.3912,-1.19742 -3.28724,-2.6941 -2.68946,-4.49024 0.35856,-1.06437 1.46873,-1.5957 3.33399,-1.5957 z m 28.04882,9.67774 c -1.19556,1.19742 -4.18441,2.99382 -8.96679,5.38867 -4.78238,2.39484 -8.9659,3.59179 -12.55274,3.59179 -1.79341,0.66524 -3.21362,0.99805 -4.25976,0.99805 -1.04615,0 -1.71869,-0.33281 -2.01758,-0.99805 -0.59805,-1.19742 0.298,-2.99187 2.68945,-5.38671 z M 260.04297,413.70312 c 51.41082,23.90857 71.73693,44.82892 60.97656,62.76368 -4.74725,7.9163 -12.63761,11.875 -23.66797,11.875 -13.97178,0 -32.98249,-6.34948 -57.03515,-19.04883 z m 975.61133,8.98047 c 14.1674,1.26396 26.2526,4.08992 36.2578,8.48047 l -36.2578,59.24414 z m 63,30.4336 c 3.0727,4.85622 5.3861,10.25476 6.9414,16.19531 23.9119,108.79927 48.123,186.2157 72.6328,232.25 24.5099,46.02765 38.5577,107.90162 42.1445,185.62109 -1.9132,3.79184 -4.9733,5.6875 -9.1816,5.6875 h -3.3711 c -0.3859,0.0199 -0.7849,0.0312 -1.1973,0.0312 -7.0198,0 -18.4954,-3.2269 -34.4238,-9.67968 -6.9607,-4.98927 -15.4969,-8.77436 -25.6094,-11.35547 -32.1848,-15.22724 -75.7393,-38.70772 -130.664,-70.43946 l 14.3476,-44.83398 c 10.7604,0 47.2252,11.35721 109.3965,34.06836 l 7.1739,-23.31055 c -51.4109,-66.95592 -84.2895,-128.5302 -98.6368,-184.72265 h -25.1074 l -41.248,104.01562 -14.3477,-21.52344 z M 968.4375,964.29883 808.82422,1270.9688 631.27734,992.98633 Z m -346.36523,92.99997 v 0.1289 h 2.03125 l 80.70312,121.9473 H 636.6582 c -37.06356,3.5923 -58.58447,24.5146 -64.5625,62.7656 -10.76036,68.1534 -27.19967,129.7277 -49.31836,184.7227 -22.1186,55.0016 -43.94015,118.3691 -65.46093,190.1015 l 1.79492,60.9786 c 27.49883,50.2119 20.32453,78.906 -21.52149,86.0839 l -227.76172,1.7969 -1.79296,-1.7969 c 68.14924,-20.3296 119.85871,-43.9455 155.1289,-70.8476 35.27026,-26.8955 58.28454,-90.8574 69.04492,-191.8867 10.76042,-101.0294 26.90107,-205.9449 48.42188,-314.7442 2.39126,-62.1729 26.30356,-98.0413 71.73633,-107.6074 36.63657,-14.4289 59.87188,-21.6426 69.70508,-21.6426 z m 339.1914,-892.91013 v 0.0195 c -3.58682,5.98712 -3.58682,10.77065 0,14.34961 -4.78244,-1.19742 -8.96791,-2.99382 -12.55469,-5.38867 1.1955,-3.59227 5.38097,-6.58562 12.55469,-8.98047 z m 14.34571,3.61328 19.72851,10.76563 c -5.97801,1.19742 -13.15224,1.79687 -21.52148,1.79687 5.978,-3.59227 6.57534,-7.77634 1.79297,-12.55273 z m -36.47461,51.19922 v 0.48828 h -1.18555 c -2.39119,1.19743 -3.28919,3.29355 -2.69141,6.28711 0.59805,2.99356 -0.298,4.78997 -2.68945,5.38867 h -1.02539 c -2.04965,0 -4.09891,-1.52976 -6.14844,-4.58984 -2.39119,-3.59227 -4.78263,-5.38867 -7.17383,-5.38867 -2.39118,0 -3.88464,0.59749 -4.48242,1.79492 -0.59805,1.19742 -0.89648,3.59327 -0.89648,7.18555 1.43478,-1.46352 2.8211,-2.19531 4.16015,-2.19531 2.00854,0 3.90971,1.59592 5.70313,4.78906 2.06934,3.72532 4.56719,5.58789 7.49609,5.58789 1.30174,0 2.68866,-0.3659 4.16016,-1.09766 4.78238,-2.39484 7.17383,-6.2823 7.17383,-11.66406 0,-4.39055 -0.7997,-6.58594 -2.40039,-6.58594 z m 296.51953,411.52344 c 8.3691,35.86285 29.8881,74.72035 64.5605,116.57031 -25.1076,-10.76351 -53.8008,-19.13165 -86.082,-25.10547 l -7.1738,-5.38867 z m -138.0938,35.86328 c 28.6944,1.19743 53.2061,18.53316 73.5313,52.00781 l -19.7285,44.83399 c -31.0856,-7.17124 -53.2039,-16.73322 -66.3555,-28.6875 -2.3915,-27.50084 1.7921,-50.21955 12.5527,-68.1543 z m 96.8438,71.73633 7.1738,3.5918 -14.3457,46.63086 -10.7617,-5.38868 z m -5.3789,75.32812 c 34.429,21.77982 65.5017,40.36 93.2207,55.74024 -39.4315,6.25322 -59.1465,27.72241 -59.1465,64.41015 0,162.60347 -11.3577,243.90627 -34.0742,243.90627 9.1663,-11.9543 14.5465,-26.8993 16.1406,-44.834 4.7824,-53.8043 2.9885,-101.9271 -5.3808,-144.36914 -8.3692,-42.44203 -11.9555,-100.72632 -10.7598,-174.85352 z m 115.6387,90.53516 c 0.8947,0 1.8019,0.009 2.7246,0.0293 32.2812,0.66523 49.0212,10.52693 50.2168,29.58593 v 200.86917 h -34.0762 v -125.541 h -34.0742 v 417.8613 H 998.92383 v 324.6016 H 686.87305 V 1213.582 h 41.24804 l 86.08203,134.5 71.73633,-134.5 h 340.74605 c 1.0245,0.053 2.0266,0.08 3.0059,0.08 19.5743,0 29.9317,-11.3852 31.0703,-34.1562 V 933.80273 c -1.1614,-19.74419 13.473,-29.61523 43.9024,-29.61523 z m -156.8868,-2.66406 c 2.3909,32.28388 5.977,61.57744 10.7598,87.88086 9.5648,45.4289 12.2547,88.1707 8.0703,128.2246 -4.185,40.0538 -34.3735,60.6795 -90.5664,61.877 H 903.875 L 1031.2051,932.01758 Z M 1033,1459.2734 h 256.4551 v 16.1446 h -238.5215 v 276.1758 H 1033 Z m 52.0078,50.211 h 204.4473 v 242.1094 h -206.2403 z"
     inkscape:connector-curvature="0"
     sodipodi:nodetypes="ccccccccccsccscsccccccccsccccscscsccscscccccccccccccccccsccsccccccccccccscccccccscsscccccccssccccsssccccsccscccccscccccccccccccccccccccccccscscccccccsccccsccccscccccccccccscccccsccccccccccscsccccccccccccccccccccccccccccscccccccccccccccccccscsccscscsccccccccccccccccccsccccscccccccccccccccsccsccccccccccccccccccc" />
</svg>
