<?xml version="1.0" encoding="UTF-8" standalone="no"?>
<svg
   width="1085"
   height="1800"
   version="1.1"
   id="svg858"
   sodipodi:docname="US7036A21AVARA.svg"
   inkscape:version="1.1 (c68e22c387, 2021-05-23)"
   xmlns:inkscape="http://www.inkscape.org/namespaces/inkscape"
   xmlns:sodipodi="http://sodipodi.sourceforge.net/DTD/sodipodi-0.dtd"
   xmlns="http://www.w3.org/2000/svg"
   xmlns:svg="http://www.w3.org/2000/svg">
  <defs
     id="defs862" />
  <sodipodi:namedview
     id="namedview860"
     pagecolor="#ffffff"
     bordercolor="#666666"
     borderopacity="1.0"
     inkscape:pageshadow="2"
     inkscape:pageopacity="0.0"
     inkscape:pagecheckerboard="0"
     showgrid="false"
     inkscape:zoom="0.39199139"
     inkscape:cx="1151.811"
     inkscape:cy="1238.5476"
     inkscape:window-width="2560"
     inkscape:window-height="1537"
     inkscape:window-x="-8"
     inkscape:window-y="-8"
     inkscape:window-maximized="1"
     inkscape:current-layer="svg858" />
  <path
     id="path856"
     style="fill:#000000;stroke:none;stroke-width:60.842"
     d="m 1064.8344,128.54304 c -1.4371,0 -2.9446,0.9643 -5.2317,2.86204 -3.0001,2.48941 -48.6186,53.85782 -101.37508,114.15201 -52.7564,60.29421 -97.0172,109.62581 -98.3573,109.62581 l -24.721,31.34087 -43.9298,49.93815 -43.9298,49.93816 -12.3664,-1.97822 c -3.6336,-0.58103 -7.0426,-0.87311 -10.2408,-0.87311 -10.4904,0 -18.7067,3.1428 -25.1029,9.53893 l -6.5104,6.51036 11.3922,20.72539 c 6.6733,12.14055 11.3923,25.17338 11.3923,31.46339 0,16.22245 8.2714,23.31014 41.6102,35.6577 16.724,6.19402 47.3307,19.35683 68.0156,29.25084 l 37.6086,17.98944 45.3048,21.36536 c 1.1779,0 14.1516,5.14414 28.831,11.43031 37.3933,16.01313 85.63158,32.47726 102.26248,34.90474 3.1469,0.4563 5.7429,0.73037 8.0961,0.73037 6.7589,0 11.5118,-2.23155 21.5378,-8.63963 15.0731,-9.63163 15.5205,-10.35603 13.6454,-22.08267 -5.7781,-36.13344 -20.0399,-73.27785 -55.039,-143.35051 -40.71598,-81.51817 -68.75908,-126.80285 -85.35448,-137.83221 -5.9439,-3.95029 -18.2481,-9.71167 -27.3428,-12.80305 -9.0946,-3.09138 -16.4209,-7.0612 -16.28,-8.82163 0.1398,-1.76041 39.8617,-54.84661 88.2675,-117.96925 79.67338,-103.8964 87.53798,-115.23975 83.02538,-119.75238 -2.2264,-2.22645 -3.677,-3.32121 -5.2079,-3.32121 z M 871.45892,404.64643 v 0 c 1.8353,6.1e-4 3.9731,2.489 8.68,8.08294 20.0873,27.66445 43.6383,75.65962 43.6383,75.65962 1.4585,1.55499 17.3297,31.27398 35.2699,66.04218 17.9142,34.71742 31.3754,63.06477 29.9492,63.06475 0,0 -0.01,1.2e-4 -0.01,0 -1.4719,-0.0832 -10.5982,-4.33431 -20.2804,-9.44615 -9.6823,-5.11183 -26.9664,-12.4229 -38.4092,-16.24795 -33.8153,-10.37256 -64.5691,-18.60382 -95.2954,-25.16238 -24.4797,-7.00073 -31.2551,-12.78545 -41.1736,-35.15335 l -7.6915,-17.34351 37.6715,-49.3315 c 20.7192,-27.13228 39.945,-52.23599 42.7237,-55.78714 2.2032,-2.8154 3.4685,-4.37684 4.9223,-4.37751 z M 789.38281,0 c -9.36522,0 -18.82176,0.56446283 -28.37109,1.6953125 -45.62421,5.402849 -88.24609,39.9227925 -127.86719,103.5566375 -20.41076,21.61146 -39.0211,46.82335 -55.83008,75.63867 -4.80252,16.80896 1.20086,26.41519 18.00977,28.81641 -7.20379,10.80577 -6.60365,19.80987 1.80078,27.01367 7.20385,0 7.80393,1.50031 1.80078,4.50196 -6.00316,3.00158 -7.20345,8.10474 -3.60156,15.30859 3.60189,7.20379 6.00242,16.81003 7.20312,28.81641 1.20057,12.00637 8.40431,19.51008 21.61133,22.51172 9.43354,2.14399 22.23651,3.21484 38.40821,3.21484 6.46881,0 13.47639,-0.17069 21.02343,-0.51367 l -1.80078,36.01953 c -33.61782,9.60508 -70.83649,24.01242 -111.6582,43.22265 L 357.59766,497.85938 c -18.6768,0.53344 -36.70185,0.80078 -54.07422,0.80078 -60.80242,0 -113.61576,-3.26795 -158.43946,-9.80469 -20.41085,-20.41075 -36.01852,-33.61798 -46.824214,-39.62109 V 153.87695 H 47.832031 v 291.75586 c -39.6210238,0 -54.6285233,21.31094 -45.0234372,63.9336 9.3419252,41.45492 23.7956902,62.18164 43.3593752,62.18164 0.5511,0 1.104838,-0.016 1.664062,-0.0488 V 1792.748 H 98.259766 V 557.29102 l 39.621094,-10.80469 c 85.74207,14.94582 147.51979,22.41797 185.33203,22.41797 19.90117,0 33.16291,-2.0708 39.78711,-6.21094 98.45235,-19.21015 171.09119,-50.42542 217.91602,-93.64844 27.6147,82.84404 40.8217,192.10137 39.62109,327.77344 -42.02229,7.20382 -48.02571,25.214 -18.00977,54.0293 l -48.625,113.46093 48.625,-9.00586 -70.23632,311.56637 c -24.01283,110.4588 -46.82604,210.1118 -68.4375,298.959 -7.2038,51.6276 -25.81414,93.6492 -55.83008,126.0664 -30.016,32.4172 -66.6345,53.4282 -109.85742,63.0332 -43.22299,9.6051 -66.03427,24.0124 -68.43555,43.2227 H 465.6543 c 15.6083,-14.4077 22.21184,-42.0222 19.81054,-82.8438 75.64022,-147.6785 121.26479,-252.1345 136.87305,-313.3671 6.00321,-84.0446 23.41319,-130.2694 52.22852,-138.6739 h 124.26562 c -6.00323,34.8185 -1.20014,66.0357 14.4082,93.6504 l 59.43165,277.3477 c 0,51.6274 -48.02712,93.6491 -144.07813,126.0664 -19.21017,3.6016 -29.41455,15.0083 -30.61523,34.2187 h 55.83007 c 70.8376,-6.0032 130.86953,-9.6041 180.09571,-10.8047 31.21659,-18.0095 34.21734,-47.4261 9.0039,-88.248 6.00316,-187.2994 1.20001,-302.2602 -14.4082,-344.8828 -15.60828,-42.6227 -23.41211,-73.5398 -23.41211,-92.75 C 891.88082,1113.7867 881.97654,1004.8295 875.37305,930.99023 868.76954,857.15103 854.06212,807.62354 831.25,782.41016 858.86465,689.961 891.35997,585.64067 923.77722,488.38899 l -2.48034,-107.2718 c -40.19486,-16.08937 -67.76869,-26.07142 -81.04297,-29.13477 -15.6083,-3.60189 -13.20777,-26.41323 7.20312,-68.43554 37.21977,-19.21025 66.03645,-43.22381 86.44727,-72.03907 20.41082,-28.81532 28.81477,-62.13305 25.21289,-99.95312 C 955.51525,73.734543 933.004,44.619835 891.58203,24.208984 858.82977,8.0701997 824.7623,0 789.38281,0 Z m -10.56445,29.144531 c 17.87783,0 38.95673,3.756384 63.23633,11.271485 50.42676,15.608274 75.94069,43.824781 76.54101,84.646484 0.60005,40.82169 -20.11079,75.63974 -62.13281,104.45508 -18.50522,12.68932 -30.02517,19.0332 -34.56055,19.0332 -5.76367,0 -0.24707,-10.24677 16.55078,-30.74023 30.01594,-36.61946 41.12258,-67.53463 33.31836,-92.74805 -6.06984,-19.6104 -25.39623,-29.416016 -57.97656,-29.416016 -9.30858,0 -19.69912,0.799551 -31.17187,2.400391 -56.42998,-20.410852 -73.2379,-39.021127 -50.42578,-55.830078 11.82847,-8.715711 27.36808,-13.072266 46.62109,-13.072266 z m -89.98047,61.578125 c 0.65067,0 1.29683,0.04104 1.9375,0.121094 9.60515,1.200679 35.41713,12.60729 77.43945,34.21875 1.41255,7.06257 4.90377,10.59375 10.47071,10.59375 3.89692,0 8.8116,-1.73077 14.74414,-5.19141 7.75793,-4.52548 15.42784,-6.78906 23.01172,-6.78906 6.50051,0 12.93787,1.66344 19.31054,4.98828 13.80733,7.2038 15.60777,20.11081 5.40235,38.72071 -10.20548,18.60988 -23.71261,34.21749 -40.52149,46.82421 -16.80894,12.60664 -24.01257,26.71392 -21.61133,42.32227 2.40129,15.60826 10.80524,26.41478 25.2129,32.41797 -21.61145,57.63065 -13.80764,88.84592 23.4121,93.64844 37.21977,4.80257 61.2333,22.21257 72.03907,52.22851 l -102.6543,338.58008 -138.67383,23.41211 c 0,-135.67207 -12.60692,-256.33603 -37.82031,-361.99219 -15.60833,-16.80888 16.20904,-39.02004 95.45117,-66.63476 2.33133,-58.2834 -10.04925,-87.42579 -37.14258,-87.42579 -0.81283,0 -1.63931,0.0257 -2.47851,0.0781 -2.3364,0.14585 -4.57769,0.21875 -6.72461,0.21875 -24.33202,0 -36.49805,-9.37689 -36.49805,-28.13281 18.00963,-8.4043 24.01303,-15.30809 18.00977,-20.71094 -6.00312,-5.40285 -16.20951,-9.30575 -30.61719,-11.70703 10.8057,-10.80577 4.80229,-21.61026 -18.00977,-32.41602 L 645.75,132.26562 c 5.69195,-2.84594 12.38546,-4.26953 20.08008,-4.26953 18.27474,0 42.1983,8.02715 71.76953,24.08008 13.20706,-1.20062 9.00411,-7.80417 -12.60742,-19.81055 -21.61147,-12.00637 -43.82265,-18.00976 -66.63477,-18.00976 11.20595,-15.688378 21.3663,-23.533204 30.48047,-23.533204 z m 134.04883,40.513674 c -2.57275,0 -5.48718,0.3432 -8.7461,1.02929 -11.40602,2.40127 -21.31233,9.60495 -29.71679,21.61133 -8.40448,12.00638 -10.80501,21.61262 -7.20313,28.81641 -9.60509,2.40126 -15.30843,6.9023 -17.10937,13.50586 -1.80095,6.60354 1.1998,11.70671 9.0039,15.30859 1.80095,0.83122 3.79397,1.2461 5.97852,1.2461 7.282,0 16.69567,-4.61785 28.24023,-13.85352 15.00802,-12.00639 24.91421,-23.71109 29.7168,-35.11719 4.80253,-11.40603 5.70273,-20.11204 2.70117,-26.11523 -2.144,-4.28797 -6.43322,-6.43164 -12.86523,-6.43164 z m -151.92188,4.63086 c -14.40768,0 -25.81427,7.80383 -34.21875,23.41211 12.71796,15.03023 26.54956,22.54687 41.49414,22.54687 0.57474,0 1.15051,-0.011 1.72852,-0.0332 15.60827,-0.60005 31.21586,-5.10305 46.82422,-13.50781 l 28.81641,1.80078 v -7.20313 L 726.79297,159.2793 C 703.98082,143.67102 685.3725,135.86719 670.96484,135.86719 Z m 100.85352,684.36328 c 50.4268,13.207 72.0378,57.03111 64.83398,131.4707 l 12.60547,277.34763 H 584.51758 c 27.61464,-116.4618 53.42866,-249.73277 77.4414,-399.81247 z m 45.03711,-674.375 h 0.002 c 5.55509,7.1e-4 7.95135,2.6739 7.1875,8.02148 -1.20063,8.40442 -5.70169,16.20826 -13.50586,23.41211 -7.80414,7.20381 -14.70773,12.00692 -20.71094,14.40821 -1.50078,0.60004 -2.60939,0.90039 -3.32226,0.90039 -2.1386,0 -0.72998,-2.70263 4.22266,-8.10547 5.28283,-5.76308 6.3377,-8.64453 3.16796,-8.64453 -0.79245,0 -1.84732,0.18072 -3.16796,0.54101 -1.32072,0.3603 -2.42597,0.54102 -3.31446,0.54102 -3.55394,0 -3.64925,-2.88153 -0.28711,-8.64453 4.20222,-7.20387 9.90361,-13.80736 17.10743,-19.81055 5.23823,-1.74604 9.4461,-2.61884 12.62109,-2.61914 z m -151.14649,0.56055 c 0.58806,0 1.13781,0.086 1.65235,0.25781 -7.2038,9.60507 -4.80131,16.80874 7.20508,21.61133 14.40764,-3.6019 17.40838,-9.60529 9.0039,-18.00977 10.80577,3.60189 21.0121,7.80485 30.61719,12.60742 -10.56568,3.84205 -21.13165,5.76172 -31.69727,5.76172 -2.64135,0 -5.28248,-0.11895 -7.92382,-0.35937 -10.80577,0 -18.60952,-4.20295 -23.41211,-12.60743 6.17478,-6.17472 11.02631,-9.26171 14.55468,-9.26171 z m 107.91016,47.08203 c 7.20389,4.80252 8.7042,8.70542 4.50195,11.70703 -1.61627,1.15441 -3.05544,1.73047 -4.3164,1.73047 -2.01766,0 -3.57924,-1.47628 -4.6875,-4.43164 -1.80102,-4.8026 -0.30064,-7.8053 4.50195,-9.00586 z"
     sodipodi:nodetypes="ssscccccsscssscccscsccssscssscsccsccsccccssscssccccsssssccccscccccsscccccsccccccccsscccccccccccccscscccscsssssscssssscsssccssssssscscccccssscscccscscsssscsssssssscscccccscccccccssscsssssccscsccccsccscsssc" />
</svg>
