<?xml version="1.0" encoding="UTF-8" standalone="no"?>
<svg
   xmlns:dc="http://purl.org/dc/elements/1.1/"
   xmlns:cc="http://creativecommons.org/ns#"
   xmlns:rdf="http://www.w3.org/1999/02/22-rdf-syntax-ns#"
   xmlns:svg="http://www.w3.org/2000/svg"
   xmlns="http://www.w3.org/2000/svg"
   xmlns:sodipodi="http://sodipodi.sourceforge.net/DTD/sodipodi-0.dtd"
   xmlns:inkscape="http://www.inkscape.org/namespaces/inkscape"
   width="1600"
   height="1800"
   version="1.1"
   id="svg831"
   sodipodi:docname="US7036A43VARA.svg"
   inkscape:version="0.92.2 (5c3e80d, 2017-08-06)">
  <metadata
     id="metadata837">
    <rdf:RDF>
      <cc:Work
         rdf:about="">
        <dc:format>image/svg+xml</dc:format>
        <dc:type
           rdf:resource="http://purl.org/dc/dcmitype/StillImage" />
        <dc:title></dc:title>
      </cc:Work>
    </rdf:RDF>
  </metadata>
  <defs
     id="defs835" />
  <sodipodi:namedview
     pagecolor="#ffffff"
     bordercolor="#666666"
     borderopacity="1"
     objecttolerance="10"
     gridtolerance="10"
     guidetolerance="10"
     inkscape:pageopacity="0"
     inkscape:pageshadow="2"
     inkscape:window-width="1920"
     inkscape:window-height="1017"
     id="namedview833"
     showgrid="false"
     inkscape:zoom="0.161433"
     inkscape:cx="-811.01135"
     inkscape:cy="-462.772"
     inkscape:window-x="-8"
     inkscape:window-y="-8"
     inkscape:window-maximized="1"
     inkscape:current-layer="svg831" />
  <path
     id="path851"
     style="fill:#000000;stroke:none;stroke-width:99.58496094"
     d="M 1094.0326,703.92713 1035.81,691.64839 965.23814,848.67317 c -13.37911,12.42819 -26.17581,18.63271 -38.3904,18.63271 -2.81823,0 -5.60636,2.2e-4 -8.36288,-0.99563 -2.59416,-0.99584 -5.01472,-0.99562 -7.26138,-0.99562 -10.48412,0 -17.17924,6.7724 -20.08508,20.33586 19.08653,15.4556 37.20661,23.18163 54.36166,23.18163 27.24651,0 52.0563,-19.48805 74.43084,-58.4656 z M 1503.6289,6.5242298 c -10.136,0 -19.613,3.0546274 -28.4302,9.1625052 -22.9246,15.920317 -38.2064,42.346941 -45.8478,79.279685 -105.7081,44.58087 -179.5767,85.33722 -221.6053,122.26996 -42.0283,36.93275 -72.276,69.0919 -90.7431,96.47776 -18.467,27.37923 -34.0683,61.44776 -46.8041,102.20457 l -26.7467,38.83726 c -3.8208,5.11203 -5.0932,12.11577 -3.8199,21.01203 1.2734,11.46555 -11.1453,36.62096 -37.2537,75.46573 -26.10849,38.84477 -28.33614,60.49416 -6.68516,64.94893 21.65106,4.44812 32.47546,11.77095 32.47546,21.96846 -6.3681,20.38172 -3.8206,38.2143 7.6416,53.49727 l 38.2082,17.18828 h 24.8337 c 35.6606,0 37.5725,29.29446 5.7327,87.88362 -67.5001,122.26378 -106.34452,329.85991 -116.5333,622.78581 L 682.38815,1050.8029 c 0,-67.49864 -36.93437,-101.2481 -110.80262,-101.2481 L 340.42972,422.28052 269.74613,544.55245 13.754539,1006.8661 c -15.2831062,33.1086 -17.8303435,52.2124 -7.6416277,57.3112 5.9434317,2.058 11.7821227,3.0868 17.5175347,3.0868 18.844896,0 36.566923,-11.2308 53.166052,-33.6906 -3.820776,10.1909 -5.73073,21.6528 -5.730731,34.3864 0,12.7402 5.731826,21.0203 17.194153,24.8377 2.547158,1.0622 5.120876,1.5934 7.720024,1.5934 6.497896,0 13.158316,-3.4136 19.981126,-10.2385 9.55197,-9.5535 16.87413,-19.4251 21.96845,-29.616 -5.0943,35.6647 5.09478,58.5885 30.56651,68.7727 0.89149,0.6639 1.80237,0.9957 2.7321,0.9957 8.36751,0 18.28105,-15.4719 29.74335,-46.4162 L 348.07134,552.52922 521.91788,949.8919 c -70.0475,0 -82.78379,15.91685 -38.20813,47.7509 -14.00949,35.6646 -1.91046,71.9648 36.29724,108.8975 -24.19821,25.4739 -7.64193,87.2435 49.6696,185.3081 57.3116,98.0646 104.43501,220.3273 141.36913,366.7903 l -164.29401,45.8498 9.55252,95.5213 h 853.94157 l -89.7867,-122.2602 c 29.2926,-185.945 47.1216,-382.7155 53.4895,-590.3103 6.3649,-207.4953 -10.1717,-334.83026 -49.6108,-382.00697 35.6214,2.58921 53.4326,75.15838 53.4326,217.71094 h 120.3532 c 0,-189.76911 -52.216,-284.65309 -156.6505,-284.65309 10.1889,-48.39165 25.7902,-85.32488 46.8043,-110.7987 21.0144,-25.47384 44.575,-63.04327 70.6836,-112.70961 26.1086,-49.67297 47.4417,-131.82068 63.9984,-246.44298 34.3868,-15.28297 56.6749,-35.97707 66.8637,-62.08161 10.1888,-26.111176 -0.6376,-51.266583 -32.4774,-75.465731 -19.5936,-16.312017 -37.4992,-24.4673192 -53.7168,-24.4673192 z m 8.7196,45.4499482 c 6.6761,0 13.3974,2.888765 20.1634,8.664692 26.7454,20.381724 14.0091,49.03802 -38.2081,85.97076 -16.5567,113.34761 -56.0384,219.05726 -118.4443,317.12854 -54.7644,64.94931 -86.6042,122.89571 -95.5193,173.83674 -33.1134,-22.92446 -37.5707,-46.80233 -13.3724,-71.63217 24.1982,-24.8365 32.4753,-45.53375 24.8338,-62.09142 -7.6415,-16.55766 -20.3758,-26.10699 -38.2062,-28.64974 -5.0941,-0.73028 -9.7211,-1.09557 -13.8799,-1.09557 -10.3967,0 -17.8688,2.29048 -22.4173,6.87138 -35.6605,-30.56594 -69.4123,-48.39535 -101.2521,-53.48747 3.8208,-29.29789 24.8362,-68.77987 63.044,-118.44621 78.9625,-84.05635 171.9348,-147.73843 278.9164,-191.04462 17.7706,-43.9568 35.8846,-65.934757 54.342,-65.934757 z M 1093.3878,464.9533 v 0.01 c 35.9082,0 74.0275,21.22842 114.3578,63.6848 13.8154,-17.26803 26.0212,-25.90196 36.6168,-25.90196 5.033,0 9.701,1.95876 14.0073,5.87577 13.3727,12.09625 -4.1386,38.52288 -52.535,79.27968 7.6416,24.19915 29.9297,57.9486 66.8638,101.24814 -40.7549,0 -74.5048,8.91629 -101.2501,26.74864 0,-24.19915 -20.3781,-36.29921 -61.133,-36.29921 -40.7549,0 -61.1311,-28.02009 -61.1311,-84.05986 h -38.2081 c 15.2831,-31.84064 28.9744,-55.40258 41.0735,-70.68555 12.0991,-15.28297 18.7841,-34.38677 20.0576,-57.31123 7.0046,-1.72614 14.0988,-2.58902 21.2805,-2.58902 z m 15.4812,33.09282 c -15.8375,0 -26.8169,7.65456 -32.9399,22.96407 3.98,16.57758 15.042,24.86714 33.1869,24.86714 16.693,0 39.3808,-7.01834 68.0632,-21.05317 -28.4355,-17.85227 -51.2057,-26.77804 -68.3102,-26.77804 z M 306.04337,563.03425 174.22676,1029.1716 69.154871,989.04863 Z M 1326.1899,668.10614 c 91.6985,1.26141 136.91,72.58224 135.6364,213.9597 h -47.7587 c 0,-118.43972 -29.2925,-189.76055 -87.8777,-213.9597 z m -87.8777,80.22631 v 0.01 c 68.7737,0 98.0663,110.8028 87.8777,332.40595 -10.1888,221.6032 -37.5713,431.1099 -82.147,628.5204 l 47.7587,34.3864 -685.82777,-1.8933 183.39711,-55.3983 c -45.84925,-189.7691 -96.15528,-328.9091 -150.9197,-417.4203 -54.76436,-88.5178 -67.18303,-142.9644 -37.25367,-163.3395 7.48235,-5.112 15.26301,-7.6672 23.34234,-7.6672 24.23807,0 51.16412,22.9239 80.77509,68.7728 l 273.18378,349.602 h 68.77462 c 7.6416,-303.1168 35.6595,-524.72166 84.056,-664.81776 30.5662,-68.77339 66.2278,-103.161 106.9828,-103.161 z M 600.2431,994.78524 c 26.74539,8.90956 30.56536,26.10076 11.46147,51.57466 l -63.04196,7.6691 c -29.29253,-11.459 -35.65973,-31.1978 -19.10309,-59.21436 z"
     inkscape:connector-curvature="0" />
</svg>
