<?xml version="1.0" encoding="UTF-8" standalone="no"?>
<svg
   xmlns:dc="http://purl.org/dc/elements/1.1/"
   xmlns:cc="http://creativecommons.org/ns#"
   xmlns:rdf="http://www.w3.org/1999/02/22-rdf-syntax-ns#"
   xmlns:svg="http://www.w3.org/2000/svg"
   xmlns="http://www.w3.org/2000/svg"
   xmlns:sodipodi="http://sodipodi.sourceforge.net/DTD/sodipodi-0.dtd"
   xmlns:inkscape="http://www.inkscape.org/namespaces/inkscape"
   width="650"
   height="1800"
   version="1.1"
   id="svg873"
   sodipodi:docname="US7036T22vara.svg"
   inkscape:version="0.92.2 (5c3e80d, 2017-08-06)">
  <metadata
     id="metadata879">
    <rdf:RDF>
      <cc:Work
         rdf:about="">
        <dc:format>image/svg+xml</dc:format>
        <dc:type
           rdf:resource="http://purl.org/dc/dcmitype/StillImage" />
        <dc:title></dc:title>
      </cc:Work>
    </rdf:RDF>
  </metadata>
  <defs
     id="defs877" />
  <sodipodi:namedview
     pagecolor="#ffffff"
     bordercolor="#666666"
     borderopacity="1"
     objecttolerance="10"
     gridtolerance="10"
     guidetolerance="10"
     inkscape:pageopacity="0"
     inkscape:pageshadow="2"
     inkscape:window-width="1920"
     inkscape:window-height="1017"
     id="namedview875"
     showgrid="false"
     inkscape:zoom="0.18446181"
     inkscape:cx="101.96324"
     inkscape:cy="248.21038"
     inkscape:window-x="-8"
     inkscape:window-y="-8"
     inkscape:window-maximized="1"
     inkscape:current-layer="svg873" />
  <path
     style="fill:#000000;stroke:none;stroke-width:100.81591034"
     d="M 201.70746,-1.5664062 252.02699,991.11781 59.896063,917.92254 241.46483,1484.2389 c -63.69659,16.9257 -123.47412,49.8845 -163.822562,90.2329 -60.72977,60.7316 -67.613384,140.6784 -67.613384,200.5026 v 23.3192 H 653.51583 v -23.3192 c 0,-59.8242 -4.55279,-139.7711 -65.28257,-200.5026 -40.33696,-40.337 -101.1723,-73.2874 -165.53837,-90.2173 L 604.27035,917.92254 412.1372,991.11781 462.45673,-1.5664062 Z M 258.89015,48.755348 H 405.27626 L 364.10392,1062.0179 533.36354,997.96985 373.25333,1462.2946 l 0.68225,57.8267 c 68.60833,11.2842 144.86978,45.5347 183.99053,84.6553 41.94069,41.9394 47.42294,97.5503 48.96027,149.2184 H 58.989144 c 1.537342,-51.6681 7.01958,-107.279 48.960266,-149.2184 40.36738,-40.3673 115.31809,-75.4693 185.24992,-85.5823 v -56.8997 L 133.08912,997.96985 300.06027,1062.0179 Z"
     id="path871"
     inkscape:connector-curvature="0"
     sodipodi:nodetypes="cccccsccsccccccccccccccccccccc" />
</svg>
