<?xml version="1.0" encoding="UTF-8" standalone="no"?>
<svg
   xmlns:dc="http://purl.org/dc/elements/1.1/"
   xmlns:cc="http://creativecommons.org/ns#"
   xmlns:rdf="http://www.w3.org/1999/02/22-rdf-syntax-ns#"
   xmlns:svg="http://www.w3.org/2000/svg"
   xmlns="http://www.w3.org/2000/svg"
   xmlns:sodipodi="http://sodipodi.sourceforge.net/DTD/sodipodi-0.dtd"
   xmlns:inkscape="http://www.inkscape.org/namespaces/inkscape"
   width="1800"
   height="1800"
   version="1.1"
   id="svg827"
   sodipodi:docname="US7036F38new.svg"
   inkscape:version="0.92.2 (5c3e80d, 2017-08-06)">
  <metadata
     id="metadata833">
    <rdf:RDF>
      <cc:Work
         rdf:about="">
        <dc:format>image/svg+xml</dc:format>
        <dc:type
           rdf:resource="http://purl.org/dc/dcmitype/StillImage" />
        <dc:title></dc:title>
      </cc:Work>
    </rdf:RDF>
  </metadata>
  <defs
     id="defs831" />
  <sodipodi:namedview
     pagecolor="#ffffff"
     bordercolor="#666666"
     borderopacity="1"
     objecttolerance="10"
     gridtolerance="10"
     guidetolerance="10"
     inkscape:pageopacity="0"
     inkscape:pageshadow="2"
     inkscape:window-width="1920"
     inkscape:window-height="1017"
     id="namedview829"
     showgrid="false"
     inkscape:zoom="0.36892361"
     inkscape:cx="1411.0683"
     inkscape:cy="886.61085"
     inkscape:window-x="-8"
     inkscape:window-y="-8"
     inkscape:window-maximized="1"
     inkscape:current-layer="svg827" />
  <path
     id="path825-7"
     style="fill:#000000;stroke:none;stroke-width:108.43370819"
     d="m 933.45646,1568.5985 v 68.5512 c 7.14298,62.8554 35.71481,109.2836 85.71594,139.2835 25.7147,12.8603 55.7144,20.7175 90.0007,23.5729 100.0019,-15.7157 160.0039,-70.0009 180.0044,-162.8564 h 111.4304 v -68.574 h -111.4304 c -20.0005,-94.2867 -78.5733,-148.5754 -175.7182,-162.8669 L 901.31258,914.99201 c -18.3854,-42.52047 -38.61915,-63.78042 -60.70163,-63.78042 -5.37147,0 -10.8532,1.26403 -16.44335,3.79415 -30.00056,12.86024 -33.57166,45.71992 -10.71408,98.57774 l 205.71888,473.58392 c -50.00113,31.4241 -78.57296,78.5685 -85.71594,141.4311 z m 175.71664,-98.6217 c 54.2869,0 92.146,32.8596 113.575,98.5777 H 999.8858 c 18.5717,-65.7181 55.0006,-98.5777 109.2873,-98.5777 z m -107.1442,167.1517 h 225.004 c -21.429,64.2867 -59.2866,96.43 -113.5736,96.43 -54.2866,0 -91.43,-32.1433 -111.4304,-96.43 z m 332.1497,-68.5088 v 68.5512 c 7.143,62.8555 35.7148,109.2836 85.7159,139.2835 25.7148,12.8603 55.7144,20.7175 90.0007,23.5729 100.002,-15.7157 160.0039,-70.0009 180.0044,-162.8564 H 1801.33 v -68.574 h -111.4304 c -20.0005,-94.2866 -78.5733,-148.5754 -175.7181,-162.8669 L 1302.0347,915.01324 c -18.3854,-42.52047 -38.6191,-63.78042 -60.7016,-63.78042 -5.3715,0 -10.8532,1.26403 -16.4434,3.79415 -30.0005,12.86024 -33.5716,45.71992 -10.7141,98.57774 l 205.7189,473.58389 c -50.0011,31.4241 -78.5729,78.5685 -85.7159,141.4311 z m 175.7166,-98.6217 c 54.2869,0 92.146,32.8596 113.575,98.5777 h -222.8623 c 18.5718,-65.7181 55.0006,-98.5777 109.2873,-98.5777 z m -107.1442,167.1517 h 225.004 c -21.429,64.2867 -59.2866,96.4301 -113.5735,96.4301 -54.2867,0 -91.4301,-32.1434 -111.4305,-96.4301 z M 933.45646,1568.5985 H 890.5985 C 870.59805,1474.3118 812.73963,1420.0215 717.02345,1405.73 L 504.87671,915.01329 c -18.3855,-42.54938 -39.08163,-63.82294 -62.08839,-63.82294 -5.59626,0 -11.33003,1.26402 -17.19969,3.79414 -28.5719,12.86023 -31.4285,45.71993 -8.57099,98.57774 L 622.735,1427.1461 c -50.00091,31.4241 -80.00051,78.567 -90.00068,141.4296 H 489.87635 C 469.876,1474.289 412.01744,1420.0003 316.30133,1405.7088 L 102.01145,914.99203 C 84.775071,872.4571 64.766135,851.19035 41.98417,851.19035 c -5.541555,0 -11.247992,1.26402 -17.117673,3.79414 -30.000572,12.86023 -32.8571395,45.71993 -8.570987,98.57774 l 203.57576,473.58387 c -50.00098,31.4241 -78.573,78.567 -85.71595,141.4296 H 22.723371 v 68.574 H 134.15532 c 7.14295,62.8554 35.71496,109.2836 85.71595,139.2835 25.71475,12.8603 55.71429,20.7175 90.00068,23.5729 100.00193,-15.7157 160.00405,-70.0009 180.0044,-162.8564 h 45.00109 c 7.14304,62.8554 35.71498,109.2836 85.71595,139.2835 24.28616,12.8603 54.28569,20.7175 90.00068,23.5729 98.57337,-15.7157 157.8609,-70.0009 177.86128,-162.8564 h 45.00111 z m -623.58451,-98.6217 c 54.28678,0 92.14454,32.8596 113.57355,98.5777 H 200.58464 c 18.57181,-65.7181 55.00059,-98.5777 109.28731,-98.5777 z m 402.86525,0 c 54.2868,0 92.14455,32.8596 113.57356,98.5777 H 601.30677 c 20.00032,-65.7181 57.14362,-98.5777 111.43043,-98.5777 z M 200.58464,1637.1285 H 423.4455 c -21.42901,64.2867 -59.28677,96.43 -113.57355,96.43 -54.28672,0 -90.7155,-32.1433 -109.28731,-96.43 z m 402.86526,0 h 222.86086 c -20.00045,64.2867 -57.14378,96.43 -111.43043,96.43 -55.71549,0 -92.85863,-32.1433 -111.43043,-96.43 z"
     inkscape:connector-curvature="0" />
</svg>
