<?xml version="1.0" encoding="UTF-8" standalone="no"?>
<svg
   width="1560"
   height="1800"
   version="1.1"
   id="svg838"
   sodipodi:docname="US7036A202VARA.svg"
   inkscape:version="1.1 (c68e22c387, 2021-05-23)"
   xmlns:inkscape="http://www.inkscape.org/namespaces/inkscape"
   xmlns:sodipodi="http://sodipodi.sourceforge.net/DTD/sodipodi-0.dtd"
   xmlns="http://www.w3.org/2000/svg"
   xmlns:svg="http://www.w3.org/2000/svg">
  <defs
     id="defs842" />
  <sodipodi:namedview
     id="namedview840"
     pagecolor="#ffffff"
     bordercolor="#666666"
     borderopacity="1.0"
     inkscape:pageshadow="2"
     inkscape:pageopacity="0.0"
     inkscape:pagecheckerboard="0"
     showgrid="false"
     inkscape:zoom="0.13964844"
     inkscape:cx="-426.06993"
     inkscape:cy="1571.8042"
     inkscape:window-width="2560"
     inkscape:window-height="1537"
     inkscape:window-x="-8"
     inkscape:window-y="-8"
     inkscape:window-maximized="1"
     inkscape:current-layer="svg838" />
  <path
     id="path1537"
     style="fill:#000000;stroke:none;stroke-width:99.8242"
     d="m 1248.8574,9.9999997e-6 c -1.2374,0 -2.4845,0.01875639 -3.7421,0.0546875 -46.4859,1.3474168 -89.2668,13.4728265 -128.3418,36.3789065 -43.1174,22.906078 -64.0018,67.709126 -62.6543,134.406246 3.3686,18.19012 2.3566,36.04219 -3.0332,53.5586 -4.7157,16.8427 -6.3996,34.02264 -5.0528,51.53906 2.8876,7.2183 7.4941,10.82812 13.8184,10.82812 2.5296,0 5.3342,-0.57746 8.4141,-1.73242 3.1438,-1.3755 5.6576,-2.06445 7.541,-2.06445 4.5732,0 5.4274,4.05734 2.5644,12.16992 -2.6946,1.34743 -3.3685,3.70569 -2.0215,7.07422 0.8984,1.79657 2.3966,2.69336 4.4922,2.69336 1.0482,0 2.2449,-0.22462 3.5918,-0.67383 -3.7893,9.47402 -2.8422,14.21094 2.8418,14.21094 0.3793,0 0.7806,-0.0204 1.2012,-0.0625 0.5523,-0.0613 1.0801,-0.0918 1.5859,-0.0918 5.0664,0 7.9066,3.06289 8.5196,9.1875 0.6734,7.41078 4.7158,15.15768 12.1269,23.24219 2.9115,2.91141 7.3312,4.36719 13.2578,4.36719 9.1596,0 21.9199,-3.47606 38.2813,-10.42969 l 36.3789,-19.20117 c 2.021,6.06338 6.4015,13.13621 13.1387,21.2207 -57.2653,17.51641 -99.036,49.85606 -125.3106,97.01563 -38.4009,46.48596 -69.727,94.65534 -93.98052,144.50976 -57.9388,-16.8427 -143.5006,-49.18039 -256.6836,-97.01367 -10.1056,-14.14788 -26.6115,-23.24291 -49.5175,-27.28516 h -45.4746 l -34.3594,2.02149 c -2.6946,11.45303 3.032,19.874 17.1797,25.26367 -2.6946,44.46473 8.7587,67.70738 34.3593,69.72852 l 45.4746,-3.03125 c 8.7583,-2.69486 16.5052,-7.41138 23.2422,-14.14844 83.5398,52.54922 154.6159,88.2553 213.2286,107.11914 l 43.455,11.11719 c -28.9694,11.45302 -97.3512,35.03173 -205.1445,70.73828 -11.453,-10.10564 -26.9487,-15.83228 -46.4863,-17.17969 h -45.4746 c -14.8216,2.69485 -29.3072,5.05311 -43.4551,7.07422 -1.3476,12.80046 6.7372,21.22143 24.2539,25.26367 -5.885,43.15696 6.0004,64.73633 35.6562,64.73633 0.8984,0 1.8145,-0.019 2.7461,-0.0586 l 40.4219,-11.11719 c 7.4108,-4.04222 14.8216,-7.4106 22.2324,-10.10547 144.8472,-17.51639 234.44952,-43.45337 268.80862,-77.8125 46.4859,-72.08679 80.5098,-128.00515 102.0684,-167.75391 47.1596,38.40135 85.8979,131.70996 116.2148,279.92578 -1.8793,-0.0712 -3.7057,-0.10742 -5.4765,-0.10742 -31.879,0 -46.2226,11.48978 -43.0313,34.4668 2.636,18.98101 11.6677,28.4707 27.0957,28.4707 4.2858,0 9.0657,-0.73272 14.3379,-2.19726 l -68.7187,415.34179 c -40.4226,179.8801 -69.7279,291.3788 -87.918,334.4961 -10.1057,34.3591 -26.9495,54.9076 -50.5293,61.6445 -24.2534,6.0634 -62.99192,24.2533 -116.21482,54.5703 -29.6432,6.0634 -46.1491,14.1482 -49.5176,24.2539 -2.6946,10.1056 4.3802,16.1683 21.2226,18.1895 3.4646,0.4325 7.2843,0.6484 11.461,0.6484 15.313,0 35.41,-2.9113 60.289,-8.7343 12.6658,-2.6946 26.5175,-4.0411 41.55472,-4.0411 22.5557,0 47.7785,3.0305 75.6699,9.0938 6.4101,1.2817 12.3169,1.9238 17.7188,1.9238 34.3404,0 48.3078,-25.9066 41.9043,-77.7168 -2.6946,-37.7276 19.2019,-91.2858 65.6875,-160.6777 46.4859,-69.392 72.0867,-151.5853 76.8027,-246.5781 l 32.3379,-32.3379 103.0762,-2.0215 2.0215,49.5176 c 18.8639,129.352 28.9709,214.5757 30.3183,255.6718 8.7582,66.6972 0.6733,105.0995 -24.2539,115.2051 -25.6009,9.4319 -64.0033,29.3061 -115.2051,59.6231 -30.3169,4.7157 -47.4948,12.1267 -51.5371,22.2324 -3.3686,10.1057 3.7041,16.5062 21.2207,19.2012 4.2106,0.6734 8.8846,1.0097 14.0215,1.0097 15.4112,0 34.992,-3.0323 58.7403,-9.0957 12.4395,-2.9114 26.7507,-4.3672 42.9335,-4.3672 25.0097,0 54.4895,3.476 88.4395,10.4297 7.8857,1.5959 14.8945,2.3946 21.0273,2.3946 37.8791,0 42.3235,-30.4401 13.3321,-91.3223 2.021,-63.3286 9.0939,-129.016 21.2207,-197.0606 12.1268,-68.0446 5.0539,-136.7623 -21.2207,-206.1543 l 20.2109,-27.2851 12.125,-278.91602 c 2.0209,-80.16966 -25.938,-169.77155 -83.8769,-268.80664 -2.6949,-36.38025 -7.0734,-100.38349 -13.1368,-192.00782 -5.3896,-92.29801 -30.3165,-158.99363 -74.7812,-200.08984 -44.4648,-41.7699 -69.0556,-67.03475 -73.7715,-75.79297 24.9272,-17.51641 41.4331,-40.423 49.5176,-68.71875 8.7581,-28.96948 3.3695,-68.37996 -16.168,-118.234372 C 1325.7897,23.935484 1294.025,9.9999997e-6 1248.8574,9.9999997e-6 Z M 1240.1563,34.287119 c 36.4012,0 61.9716,18.568867 76.709,55.707032 16.169,41.769909 16.5053,77.475969 1.0097,107.119139 -12.9352,23.71452 -27.5959,35.57227 -43.9804,35.57227 -4.0962,0 -8.2996,-0.74047 -12.6114,-2.22266 -11.4528,-4.04221 -14.8214,-9.76888 -10.1054,-17.17969 9.4319,-8.7582 10.7803,-20.2115 4.0429,-34.35937 6.7371,-21.55866 7.409,-37.39046 2.0196,-47.4961 -5.4225,-14.7887 -13.7301,-22.18359 -24.9239,-22.18359 -4.1041,0 -8.5959,0.99419 -13.4765,2.98242 -8.7582,5.38964 -14.4849,11.11629 -17.1797,17.17969 -22.6048,-5.1237 -42.9173,-7.68555 -60.9375,-7.68555 -22.2605,0 -41.0223,3.90801 -56.2871,11.72657 3.3687,-26.94834 16.1682,-48.506788 38.4004,-64.675786 22.2324,-15.49529 55.9182,-26.610575 101.0566,-33.347656 5.642,-0.757925 11.0632,-1.136725 16.2637,-1.136719 z m -9.5196,93.386721 c 5.706,0 9.5205,3.60787 11.4454,10.82617 4.0422,11.45305 3.3683,25.60261 -2.0215,42.44531 4.0422,12.80046 2.3582,19.53724 -5.0528,20.21094 -1.2438,0.20697 -2.4081,0.31055 -3.4921,0.31055 -5.9636,0 -9.514,-3.13557 -10.6543,-9.40625 -3.3687,7.41079 7.0725,26.27492 31.3261,56.59179 23.5798,30.99058 58.6137,69.05493 105.0996,114.19336 46.4858,45.81218 72.0868,173.4787 76.8028,383.00196 l -140.4688,70.74023 c -18.8638,-124.63601 -62.6548,-231.41816 -131.373,-320.34766 -16.8427,-18.86381 -21.2213,-36.71784 -13.1367,-53.56054 8.7581,-16.16902 37.7274,-37.38944 86.9082,-63.66407 24.2534,-10.10563 27.6218,-22.233 10.1054,-36.38085 -16.8427,-14.14788 -27.6219,-29.30561 -32.3379,-45.47461 -11.453,0 -23.5803,5.05259 -36.3808,15.1582 -21.1486,10.57431 -36.0909,15.86133 -44.8262,15.86133 -1.8387,0 -3.4023,-0.23461 -4.6914,-0.70313 -7.4108,-2.69484 -11.7893,-9.09556 -13.1367,-19.20117 l 15.1582,-15.1582 c 4.7164,-4.04228 4.7164,-7.74868 0,-11.11719 l -30.3164,7.07422 c 3.3687,-17.51642 -1.0098,-26.94751 -13.1367,-28.29492 -4.2446,2.72852 -7.739,4.09179 -10.4825,4.09179 -3.3534,0 -5.5858,-2.03732 -6.6972,-6.11328 -2.6946,-8.7582 -0.3381,-21.55768 7.0722,-38.40039 4.0422,-16.169 10.4429,-28.63436 19.2012,-37.39258 8.0845,-7.4626 18.4658,-11.19336 31.1426,-11.19336 1.0562,0 2.128,0.0263 3.2168,0.0781 4.7164,0.22428 9.3945,0.33594 14.0351,0.33594 9.2823,0 18.4157,-0.44937 27.3985,-1.34766 l -2.0215,-11.11523 c -5.0531,0.67368 -10.5272,1.00976 -16.4219,1.00976 -5.895,0 -12.2102,-0.33608 -18.9473,-1.00976 -3.1291,-0.34739 -6.1535,-0.52149 -9.0703,-0.52149 -19.6854,0 -34.515,7.92068 -44.4902,23.76367 -1.3476,-10.10562 -1.3476,-17.17846 0,-21.2207 17.0409,-11.88897 37.4624,-17.83398 61.2637,-17.83398 16.6608,0 34.9776,2.91268 54.9511,8.73828 v 13.13672 c 3.032,0.67368 5.8117,1.01172 8.3379,1.01172 2.5263,0 4.7992,-0.33804 6.8204,-1.01172 0,-21.55866 3.7044,-33.68407 11.1152,-36.37891 2.8876,-1.1549 5.4738,-1.73242 7.7558,-1.73242 z m -64.3457,51.25 -15.1582,4.04101 c -7.0739,-1.34742 -13.6436,-2.01953 -19.707,-2.01953 -6.0633,0 -11.621,0.67211 -16.6738,2.01953 -10.1057,3.36854 -16.1684,7.07493 -18.1895,11.11719 -2.0212,4.04227 -5.3895,7.74672 -10.1054,11.11524 l 5.0527,6.06445 8.084,-4.04297 c 4.2345,1.92487 8.7443,2.88867 13.5293,2.88867 11.9617,0 25.6419,-6.01637 41.041,-18.04687 l 15.1582,-2.02149 z m 291.0411,612.40039 c 39.075,68.71827 58.2773,129.68916 57.6035,182.91211 -0.6735,53.22286 -6.0641,138.78266 -16.1699,256.68166 l -256.6836,-2.0196 58.6132,-368.85542 z M 307.61328,0 c -45.16759,0 -76.93219,23.935474 -95.29297,71.804688 -19.53754,49.854412 -24.9281,89.264932 -16.16992,118.234372 8.08453,28.29575 24.59039,51.20234 49.51758,68.71875 -4.71596,8.75822 -29.3048,34.02307 -73.76953,75.79297 C 127.4337,375.64699 102.5049,442.34261 97.115234,534.64062 91.05185,626.26495 86.673346,690.26819 83.978516,726.64844 26.039567,825.68353 -1.9196087,915.28572 0.1015625,995.45703 l 12.1269535,278.91597 20.210937,27.2832 c -26.2746439,69.392 -33.3474724,138.1098 -21.220703,206.1543 12.126769,68.0446 19.199598,133.732 21.220703,197.0606 -28.9915112,60.8822 -24.54703,91.3223 13.332031,91.3223 6.132838,0 13.141641,-0.7987 21.027344,-2.3946 33.949992,-6.9537 63.429762,-10.4297 88.439452,-10.4297 16.18279,0 30.49402,1.4557 42.9336,4.3672 23.7483,6.0634 43.3291,9.0957 58.74023,9.0957 5.13699,0 9.8109,-0.3382 14.02148,-1.0117 17.5164,-2.6949 24.58923,-9.0935 21.22071,-19.1992 -4.04226,-10.1057 -21.22219,-17.5167 -51.53907,-22.2324 -51.2018,-30.317 -89.6022,-50.1912 -115.20312,-59.6231 -24.9272,-10.1056 -33.012123,-48.5079 -24.25391,-115.2051 1.34738,-41.0961 11.45253,-126.3198 30.31641,-255.6718 l 2.02148,-49.5176 103.07813,2.0215 32.33789,32.3379 c 4.71594,94.9928 30.31687,177.1841 76.80273,246.5761 46.4859,69.392 68.3804,122.9521 65.68555,160.6797 -6.4035,51.8102 7.56593,77.7168 41.90625,77.7168 5.40187,0 11.3067,-0.6421 17.7168,-1.9238 27.89146,-6.0633 53.11617,-9.0938 75.67187,-9.0938 15.03722,0 28.88892,1.3465 41.55469,4.0411 24.87899,5.823 44.97402,8.7343 60.28711,8.7343 4.17636,0 7.99806,-0.2159 11.46289,-0.6484 16.84273,-2.0212 23.91556,-8.0839 21.2207,-18.1895 -3.36853,-10.1057 -19.87441,-18.1905 -49.51758,-24.2539 -53.22296,-30.3169 -91.96137,-48.5069 -116.21484,-54.5703 -23.57979,-6.737 -40.42172,-27.2854 -50.52734,-61.6445 -18.19013,-43.1173 -47.49741,-154.616 -87.91992,-334.4961 l -68.7168,-415.34179 c 5.27245,1.46454 10.05042,2.19726 14.33594,2.19726 15.42783,0 24.45948,-9.48969 27.0957,-28.4707 3.19126,-22.97702 -11.15242,-34.4668 -43.03125,-34.4668 -1.77109,0 -3.59526,0.0362 -5.47461,0.10742 30.31688,-148.21582 69.05528,-241.52443 116.21484,-279.92578 21.55868,39.74876 55.58054,95.66712 102.06641,167.75391 34.35913,34.35914 123.96134,60.29611 268.80859,77.8125 7.4108,2.69483 14.82163,6.06325 22.23243,10.10547 l 40.42382,11.11719 c 0.93136,0.0397 1.84546,0.0586 2.74414,0.0586 29.65594,0 41.54129,-21.57937 35.65625,-64.73633 17.51644,-4.04224 25.60134,-12.46321 24.25391,-25.26367 -14.14787,-2.02111 -28.63154,-4.37937 -43.45312,-7.07422 H 824.7207 c -19.53753,1.34741 -35.03328,7.07405 -46.48632,17.17969 C 670.44105,697.00439 602.06124,673.42568 573.0918,661.97266 l 43.45312,-11.11719 c 58.61262,-18.86384 129.6887,-54.56992 213.22852,-107.11914 6.73708,6.73708 14.48592,11.4536 23.24414,14.14844 l 45.47461,3.03125 c 25.60091,-2.02114 37.05421,-25.26379 34.35937,-69.72852 14.14788,-5.38967 19.87452,-13.81063 17.17969,-25.26367 l -34.35937,-2.02149 h -45.47461 c -22.90609,4.04225 -39.41197,13.13728 -49.51758,27.28516 -113.18298,47.83329 -198.74468,80.17097 -256.6836,97.01367 -24.25349,-49.85442 -55.58104,-98.0239 -93.98242,-144.50976 -26.27461,-47.15957 -68.04536,-79.49727 -125.31055,-97.01368 6.73708,-8.08451 11.11754,-15.15929 13.13868,-21.22265 l 36.3789,19.20117 c 16.36148,6.95363 29.12369,10.42969 38.28321,10.42969 5.92674,0 10.34446,-1.45578 13.25586,-4.36719 7.41081,-8.08451 11.45327,-15.83141 12.12695,-23.24219 0.61245,-6.12461 3.45279,-9.1875 8.51953,-9.1875 0.50683,0 1.0349,0.0305 1.58594,0.0918 0.42138,0.0421 0.8225,0.0625 1.20117,0.0625 5.68438,0 6.63138,-4.73692 2.8418,-14.21094 1.34742,0.44921 2.54384,0.67383 3.59179,0.67383 2.09605,0 3.5939,-0.89679 4.49219,-2.69336 1.34742,-3.36853 0.67337,-5.72679 -2.02148,-7.07422 -2.86329,-8.11258 -2.00688,-12.16992 2.5664,-12.16992 1.88308,0 4.39507,0.68895 7.53906,2.06445 3.07985,1.15496 5.88621,1.73242 8.41602,1.73242 6.32461,0 10.92909,-3.60982 13.81641,-10.82812 1.34742,-17.51642 -0.33678,-34.69636 -5.05274,-51.53906 -5.3897,-17.51641 -6.39978,-35.36848 -3.03125,-53.5586 C 503.69897,104.14272 482.81458,59.339672 439.69727,36.433594 400.6222,13.527514 357.84134,1.4021043 311.35547,0.0546875 310.09787,0.01875639 308.85073,0 307.61328,0 Z m 8.69922,34.287109 c 5.20015,0 10.6233,0.378798 16.26562,1.136719 45.13843,6.737082 78.82229,17.852365 101.05469,33.347656 22.23237,16.168998 35.03383,37.727456 38.40235,64.675786 -15.26479,-7.81856 -34.02868,-11.72657 -56.28907,-11.72657 -18.02027,0 -38.3328,2.56185 -60.9375,7.68555 -2.69483,-6.0634 -8.41952,-11.79005 -17.17773,-17.17969 -4.8803,-1.98823 -9.37415,-2.98242 -13.47852,-2.98242 -11.19374,0 -19.50132,7.39489 -24.92382,22.18359 -5.38967,10.10564 -4.7156,25.93744 2.02148,47.4961 -6.73708,14.14787 -5.39092,25.60117 4.04102,34.35937 4.71594,7.41081 1.3476,13.13748 -10.10547,17.17969 -4.31172,1.48219 -8.51515,2.22266 -12.61133,2.22266 -16.38454,0 -31.0433,-11.85775 -43.97852,-35.57227 -15.49526,-29.64317 -15.15924,-65.34923 1.00977,-107.119139 14.73737,-37.138165 40.30572,-55.707032 76.70703,-55.707032 z M 99.136719,791.32422 255.77539,860.04297 314.38672,1228.8984 57.705078,1230.918 C 47.59948,1113.019 42.208879,1027.4592 41.535156,974.23633 40.861432,921.01338 60.061647,860.04249 99.136719,791.32422 Z M 325.83398,127.67383 c 2.28238,0 4.8666,0.57753 7.75391,1.73242 7.4108,2.69484 11.11523,14.8222 11.11523,36.38086 2.02112,0.67368 4.29586,1.00977 6.82227,1.00977 2.52642,0 5.30624,-0.33609 8.33789,-1.00977 v -13.13867 c 19.97347,-5.8256 38.29033,-8.73828 54.95117,-8.73828 23.80126,0 44.22088,5.94501 61.26172,17.83398 1.34743,4.04224 1.34743,11.11508 0,21.2207 -9.9752,-15.843 -24.80479,-23.76367 -44.49023,-23.76367 -2.9164,0 -5.93888,0.1741 -9.06836,0.52149 -6.73709,0.67368 -13.05428,1.00976 -18.94922,1.00976 -5.89492,0 -11.36709,-0.33608 -16.41992,-1.00976 l -2.02149,11.11523 c 8.98276,0.89829 18.11429,1.34766 27.39649,1.34766 4.6411,0 9.3192,-0.11166 14.03515,-0.33594 1.08829,-0.0518 2.16235,-0.0781 3.21875,-0.0781 12.67691,0 23.05614,3.73076 31.14063,11.19336 8.75819,8.75822 15.1589,21.22358 19.20117,37.39258 7.41077,16.84271 9.76902,29.6422 7.07422,38.40039 -1.11164,4.07596 -3.34391,6.11328 -6.69727,6.11328 -2.74368,0 -6.23803,-1.36327 -10.48242,-4.09179 -12.12671,1.34741 -16.50524,10.7785 -13.13672,28.29492 L 426.55859,282 c -4.71596,3.36851 -4.71596,7.07491 0,11.11719 l 15.16016,15.1582 c -1.34741,10.10561 -5.72787,16.50633 -13.13867,19.20117 -1.2888,0.46852 -2.85238,0.70313 -4.69141,0.70313 -8.73528,0 -23.6776,-5.28702 -44.82617,-15.86133 -12.80045,-10.10561 -24.92586,-15.1582 -36.37891,-15.1582 -4.71596,16.169 -15.49518,31.32673 -32.33789,45.47461 -17.5164,14.14785 -14.148,26.27522 10.10547,36.38085 49.1807,26.27463 78.14999,47.49505 86.90821,63.66407 8.08449,16.8427 3.70404,34.69673 -13.13868,53.56054 -68.71823,88.9295 -112.50923,195.71165 -131.37304,320.34766 l -140.4668,-70.73828 c 4.71593,-209.52327 30.31686,-337.19175 76.80273,-383.00391 46.48588,-45.13844 81.51787,-83.20278 105.09766,-114.19336 24.2535,-30.31687 34.69669,-49.18066 31.32813,-56.59179 -1.14013,6.27068 -4.69256,9.40625 -10.65626,9.40625 -1.08428,0 -2.24837,-0.10358 -3.49218,-0.31055 -7.41081,-0.6737 -9.09501,-7.41048 -5.05274,-20.21094 -5.38963,-16.8427 -6.06369,-30.99226 -2.02148,-42.44531 1.92491,-7.2183 5.74139,-10.82617 11.44726,-10.82617 z m 64.34571,51.25 -3.03125,11.11523 15.1582,2.02149 c 15.39904,12.0305 29.07924,18.04687 41.04102,18.04687 4.78472,0 9.29456,-0.9638 13.52929,-2.88867 l 8.08399,4.04297 5.05273,-6.06445 c -4.7159,-3.36852 -8.08429,-7.07297 -10.10547,-11.11524 -2.0211,-4.04226 -8.08382,-7.74865 -18.18945,-11.11719 -5.0528,-1.34742 -10.6124,-2.01953 -16.67578,-2.01953 -6.06339,0 -12.63115,0.67211 -19.70508,2.01953 z" />
</svg>
