<?xml version="1.0" encoding="UTF-8" standalone="no"?>
<svg
   xmlns:dc="http://purl.org/dc/elements/1.1/"
   xmlns:cc="http://creativecommons.org/ns#"
   xmlns:rdf="http://www.w3.org/1999/02/22-rdf-syntax-ns#"
   xmlns:svg="http://www.w3.org/2000/svg"
   xmlns="http://www.w3.org/2000/svg"
   xmlns:sodipodi="http://sodipodi.sourceforge.net/DTD/sodipodi-0.dtd"
   xmlns:inkscape="http://www.inkscape.org/namespaces/inkscape"
   width="800"
   height="1800"
   version="1.1"
   id="svg831"
   sodipodi:docname="US7036R9VARA.svg"
   inkscape:version="0.92.2 (5c3e80d, 2017-08-06)">
  <metadata
     id="metadata837">
    <rdf:RDF>
      <cc:Work
         rdf:about="">
        <dc:format>image/svg+xml</dc:format>
        <dc:type
           rdf:resource="http://purl.org/dc/dcmitype/StillImage" />
        <dc:title></dc:title>
      </cc:Work>
    </rdf:RDF>
  </metadata>
  <defs
     id="defs835" />
  <sodipodi:namedview
     pagecolor="#ffffff"
     bordercolor="#666666"
     borderopacity="1"
     objecttolerance="10"
     gridtolerance="10"
     guidetolerance="10"
     inkscape:pageopacity="0"
     inkscape:pageshadow="2"
     inkscape:window-width="1920"
     inkscape:window-height="1017"
     id="namedview833"
     showgrid="false"
     inkscape:zoom="0.18446181"
     inkscape:cx="2704.8987"
     inkscape:cy="450.05583"
     inkscape:window-x="-8"
     inkscape:window-y="-8"
     inkscape:window-maximized="1"
     inkscape:current-layer="svg831" />
  <path
     id="path829"
     style="fill:#000000;stroke:none;stroke-width:82.14636993"
     d="m 537.12183,1431.8182 c -220.88794,117.5103 -136.90679,391.1236 80.09031,360.8526 250.48642,-35.019 197.09881,-415.2499 -80.09031,-360.8526 m 40.32939,56.5496 c 164.49776,16.38 179.72345,214.0652 39.42339,241.765 -154.28227,30.5255 -210.74341,-179.9745 -39.42339,-241.765 z M 546.31781,51.643325 544.50446,327.52599 h -0.25942 C 365.65042,312.17538 211.2297,300.593 46.886486,281.80734 V 72.499533 Z M 568.98391,3.8541252 545.54067,4.8854326 22.536677,26.638086 C 9.9868632,27.114074 0.04212958,37.403349 7.6774921e-5,49.9615 V 302.79048 C -0.03037962,314.69812 8.8898462,324.73353 20.723363,326.09803 194.26707,346.51791 354.4194,358.18755 540.23029,374.15696 h 3.88565 L 537.12183,1431.8182 664.33248,1443.1325 642.42209,5.6708129 h -73.30867 z"
     inkscape:connector-curvature="0"
     sodipodi:nodetypes="ccccccccccccccccccccccccc" />
</svg>
