<?xml version="1.0" encoding="UTF-8" standalone="no"?>
<svg
   xmlns:dc="http://purl.org/dc/elements/1.1/"
   xmlns:cc="http://creativecommons.org/ns#"
   xmlns:rdf="http://www.w3.org/1999/02/22-rdf-syntax-ns#"
   xmlns:svg="http://www.w3.org/2000/svg"
   xmlns="http://www.w3.org/2000/svg"
   xmlns:sodipodi="http://sodipodi.sourceforge.net/DTD/sodipodi-0.dtd"
   xmlns:inkscape="http://www.inkscape.org/namespaces/inkscape"
   width="1800"
   height="1800"
   version="1.1"
   id="svg835"
   sodipodi:docname="US7036N33Avara.svg"
   inkscape:version="0.92.2 (5c3e80d, 2017-08-06)">
  <metadata
     id="metadata841">
    <rdf:RDF>
      <cc:Work
         rdf:about="">
        <dc:format>image/svg+xml</dc:format>
        <dc:type
           rdf:resource="http://purl.org/dc/dcmitype/StillImage" />
        <dc:title></dc:title>
      </cc:Work>
    </rdf:RDF>
  </metadata>
  <defs
     id="defs839" />
  <sodipodi:namedview
     pagecolor="#ffffff"
     bordercolor="#666666"
     borderopacity="1"
     objecttolerance="10"
     gridtolerance="10"
     guidetolerance="10"
     inkscape:pageopacity="0"
     inkscape:pageshadow="2"
     inkscape:window-width="1920"
     inkscape:window-height="1017"
     id="namedview837"
     showgrid="false"
     inkscape:zoom="0.26086839"
     inkscape:cx="811.51573"
     inkscape:cy="476.2439"
     inkscape:window-x="-8"
     inkscape:window-y="-8"
     inkscape:window-maximized="1"
     inkscape:current-layer="svg835" />
  <path
     id="path833"
     style="fill:#000000;stroke:none;stroke-width:163.16738892"
     d="m 1320.7632,1078.6276 c -438.7498,233.411 -271.9381,776.8888 159.0834,716.7616 497.5415,-69.5582 391.4977,-824.81115 -159.0834,-716.7616 m 80.1063,112.3243 c 326.7421,32.5357 356.9848,425.1979 78.3066,480.2181 -306.4508,60.633 -418.5997,-357.4835 -78.3066,-480.2181 z M 257.80407,1078.6276 c -438.74978,233.411 -271.938052,776.8888 159.08341,716.7616 497.54148,-69.5582 391.49764,-824.81115 -159.08341,-716.7616 m 80.10633,112.3243 c 326.74207,32.5357 356.98488,425.1979 78.30659,480.2181 C 109.76616,1731.803 -2.3827009,1313.6865 337.9104,1190.9519 Z M 789.28364,13.8861 C 350.53385,247.28073 517.34557,790.77496 948.36703,730.64779 1445.9085,661.08952 1339.8647,-94.179655 789.28364,13.8861 m 80.10631,112.32444 c 326.74205,32.53558 356.98485,425.19785 78.3066,480.218 -306.45082,60.61663 -418.59969,-357.4835 -78.3066,-480.218 z" />
</svg>
