<?xml version="1.0" encoding="UTF-8" standalone="no"?>
<svg
   width="1800"
   height="950"
   version="1.1"
   id="svg1685"
   sodipodi:docname="US7036P4AVARA.svg"
   inkscape:version="1.1 (c68e22c387, 2021-05-23)"
   xmlns:inkscape="http://www.inkscape.org/namespaces/inkscape"
   xmlns:sodipodi="http://sodipodi.sourceforge.net/DTD/sodipodi-0.dtd"
   xmlns="http://www.w3.org/2000/svg"
   xmlns:svg="http://www.w3.org/2000/svg">
  <defs
     id="defs1689" />
  <sodipodi:namedview
     id="namedview1687"
     pagecolor="#ffffff"
     bordercolor="#666666"
     borderopacity="1.0"
     inkscape:pageshadow="2"
     inkscape:pageopacity="0.0"
     inkscape:pagecheckerboard="0"
     showgrid="false"
     inkscape:zoom="0.4621974"
     inkscape:cx="1370.6265"
     inkscape:cy="1115.3243"
     inkscape:window-width="2560"
     inkscape:window-height="1537"
     inkscape:window-x="-8"
     inkscape:window-y="-8"
     inkscape:window-maximized="1"
     inkscape:current-layer="svg1685" />
  <path
     id="path2084"
     style="fill:#000000;stroke:none;stroke-width:84.9542"
     d="m 162.98828,6.9648438 c -0.47404,0 -0.94893,0.00244 -1.42187,0.00781 C 99.365079,9.1253078 49.455495,67.182982 28.226562,106.3418 c -40.74089,77.00195 -37.3783024,138.34252 10.078126,184.0039 31.724598,-23.23463 61.002828,-46.89384 91.681642,-57.67968 7.40978,-1.96491 14.47007,-2.95118 21.17773,-2.95118 6.59729,0 12.85256,0.95462 18.76172,2.8711 l 118.18164,76.54883 C 289.00283,390.61517 205.29701,471.65771 36.960938,552.24414 222.65914,686.98325 406.26242,777.15051 587.79492,822.74219 L 0.03125,822.94727 0.67578125,944.38672 H 1796.9395 V 822.74219 h -131.1016 -44.457 c -0.2641,0.002 -0.503,0.0273 -0.7715,0.0273 -1.4128,0 -2.8884,-0.0273 -4.4414,-0.0273 h -55.3145 -350.3789 c 91.3172,-23.06064 178.7204,-55.47591 262.2461,-97.24414 l 28.2227,-14.75586 41.6328,-22.84571 24.164,-12.0957 c 59.9921,-33.12856 124.0176,-74.31083 192.0684,-123.55664 -0.1444,-0.0697 -0.2891,-0.14493 -0.4336,-0.21289 0.7221,-0.52672 1.4531,-1.03443 2.1777,-1.55859 -168.0495,-80.44617 -251.6625,-161.33556 -250.8242,-242.67969 38.9045,-25.40147 77.9517,-50.58513 116.9453,-75.84961 5.2892,-1.48661 10.845,-2.22852 16.666,-2.22852 30.3534,0 67.9434,20.21008 112.7793,60.63477 0.7646,-0.72211 1.5154,-1.44714 2.2579,-2.17773 0.2804,0.24635 0.5516,0.50098 0.832,0.75585 47.3911,-45.60425 50.7377,-106.86186 10.0527,-183.76367 -34.6394,-65.469817 -78.1845,-98.1914037 -130.6465,-98.1914038 -9.1561,0 -18.5837,0.9969545 -28.2832,2.9902344 0.03,0.2089874 0.052,0.4101524 0.082,0.6191404 -0.6711,0.130829 -1.3651,0.260471 -2.043,0.402344 9.7404,72.614106 1.9849,119.384335 -23.3027,140.330075 L 1365.287,256.75586 c 12.5105,139.40146 61.1192,237.78754 145.8652,295.14648 -28.3891,14.72468 -55.0978,28.85838 -80.1757,40.53125 l -32.1153,13.53907 -96.707,34.91406 -42.9805,13.44531 c -2.9862,0.99652 -6.6937,2.1389 -10.9941,3.41406 -24.1407,-56.3179 -52.9925,-101.00945 -86.5195,-134.09375 -33.5315,-33.08294 -72.1895,-59.23249 -116.004,-78.45507 -43.8143,-19.20542 -91.66514,-29.26992 -143.52729,-30.18555 -50.07378,0.89287 -97.4495,10.95728 -142.15821,30.18555 -44.70871,19.22258 -83.61871,45.37213 -116.70312,78.45507 -33.06336,33.06765 -62.08528,78.63432 -87.11133,136.70118 -26.83909,-7.12341 -53.38045,-15.16408 -79.61133,-24.05664 -0.11553,-0.039 -0.23492,-0.0673 -0.34961,-0.10938 -58.25947,-20.76178 -121.04529,-49.33297 -188.35547,-85.7168 84.9465,-58.11987 133.24683,-156.49344 144.8711,-295.09179 L 215.4043,150.76953 C 188.57908,130.20209 180.53749,83.276402 191.26758,9.9570312 181.57088,7.9643463 172.14262,6.9648436 162.98828,6.9648438 Z M 143.04883,56.644531 c -9.84942,58.202759 8.51117,99.826199 55.07226,124.900389 l 189.38086,99.39453 c -12.17191,127.39804 -65.84823,214.49079 -162.26172,258.64453 -10.99789,5.03693 -20.67571,9.15809 -31.15039,12.66016 225.64201,131.62885 460.24488,197.44531 703.79493,197.44531 243.55023,0 478.24823,-65.65667 703.79683,-197.44531 l 1.9356,-1.77344 C 1488.6808,510.37802 1424.3624,420.11514 1410.6348,279.70312 L 1605.875,176.6543 c 41.4947,-25.16266 57.3438,-65.1427 47.5469,-119.957034 25.257,1.210088 50.0954,24.679549 74.5039,70.447264 23.7602,44.55239 29.417,77.65677 16.9883,99.28711 -26.5512,-24.60709 -53.6178,-36.91992 -81.1953,-36.91992 -13.9278,0 -27.985,3.1405 -42.1739,9.42383 -0.072,0.0321 -0.1449,0.0747 -0.2129,0.10742 -54.7818,28.51178 -107.5821,58.80047 -163.9004,89.87891 l -2.1504,2.76953 c 8.9442,101.06344 79.9786,187.83477 213.1133,260.31054 -248.7589,169.75093 -504.6247,254.64063 -767.60348,254.64063 -263.78117,0 -520.38683,-85.38324 -769.86133,-256.17188 133.22922,-72.42718 204.30436,-159.61589 213.24609,-261.54882 -67.12964,-36.56876 -140.00959,-94.25586 -209.20703,-94.25586 -27.3172,0 -54.060757,8.98908 -79.650391,31.81836 C 41.638812,205.84691 44.824294,170.80897 71.902344,125.28906 87.977108,98.266379 110.04968,56.813972 143.04883,56.644531 Z M 903.47656,494.13477 c 44.70875,0.89287 84.71518,8.93721 120.03514,24.13671 35.3198,15.20526 66.4151,36.00684 93.2403,62.38282 25.649,25.21941 46.7749,56.79334 63.4316,94.68945 -25.5632,5.93829 -50.6783,11.8331 -75.3926,17.36328 -67.6035,8.89725 -134.73472,13.34766 -201.39647,13.34766 -77.67529,0 -154.71272,-6.04103 -231.12109,-18.13086 -14.40091,-3.29197 -29.03001,-6.72449 -41.3125,-9.59571 18.55915,-38.34771 40.76173,-70.69156 66.63086,-97.00195 26.37818,-26.82241 57.89554,-48.07494 94.55664,-63.72656 36.66111,-15.64592 73.77286,-23.46484 111.32812,-23.46484 z M 41.046875,862.49414 H 1758.8086 v 42.06445 H 41.046875 Z" />
</svg>
