<?xml version="1.0" encoding="UTF-8" standalone="no"?>
<svg
   xmlns:dc="http://purl.org/dc/elements/1.1/"
   xmlns:cc="http://creativecommons.org/ns#"
   xmlns:rdf="http://www.w3.org/1999/02/22-rdf-syntax-ns#"
   xmlns:svg="http://www.w3.org/2000/svg"
   xmlns="http://www.w3.org/2000/svg"
   xmlns:sodipodi="http://sodipodi.sourceforge.net/DTD/sodipodi-0.dtd"
   xmlns:inkscape="http://www.inkscape.org/namespaces/inkscape"
   width="1800"
   height="750"
   version="1.1"
   id="svg831"
   sodipodi:docname="US7036M11VARA.svg"
   inkscape:version="0.92.2 (5c3e80d, 2017-08-06)">
  <metadata
     id="metadata837">
    <rdf:RDF>
      <cc:Work
         rdf:about="">
        <dc:format>image/svg+xml</dc:format>
        <dc:type
           rdf:resource="http://purl.org/dc/dcmitype/StillImage" />
        <dc:title></dc:title>
      </cc:Work>
    </rdf:RDF>
  </metadata>
  <defs
     id="defs835" />
  <sodipodi:namedview
     pagecolor="#ffffff"
     bordercolor="#666666"
     borderopacity="1"
     objecttolerance="10"
     gridtolerance="10"
     guidetolerance="10"
     inkscape:pageopacity="0"
     inkscape:pageshadow="2"
     inkscape:window-width="1920"
     inkscape:window-height="1017"
     id="namedview833"
     showgrid="false"
     inkscape:zoom="0.27362818"
     inkscape:cx="1589.5344"
     inkscape:cy="-15.323582"
     inkscape:window-x="-8"
     inkscape:window-y="-8"
     inkscape:window-maximized="1"
     inkscape:current-layer="svg831" />
  <path
     id="path849"
     style="fill:#000000;stroke:none;stroke-width:97.24875641"
     d="m 1001.3594,182.9436 v 80.6582 h 607.666 c 47.5389,0 71.3086,23.7708 71.3086,71.3125 13.9438,77.9239 -25.6457,124.1951 -69.4317,124.1951 H 417.42578 c -86.32054,0 -129.48047,46.916 -129.48047,140.748 0,100.095 42.11369,150.1426 126.3418,150.1426 1.03991,0 2.08586,-0.01 3.13867,-0.022 H 1787.2969 V 661.7729 H 438.06836 c -43.78581,0 -66.92947,-16.8881 -69.43164,-50.666 0,-47.5351 23.76967,-71.3027 71.30859,-71.3027 H 1610.9023 v -1.8477 c 1.2817,0.015 2.5548,0.021 3.8204,0.021 102.5386,0 153.8085,-42.7384 153.8085,-206.7888 1e-4,-98.8306 -45.6615,-148.2461 -136.9863,-148.2461 z m 0,0 C 962.9555,88.0646 872.0294,40.6252 728.5801,40.6252 v -0.033 C 428.1269,41.6997 189.7973,97.0439 13.5918,206.6254 c -6.7772,4.5185 -10.166,9.8865 -10.166,16.1016 0,6.2106 3.3888,11.5734 10.166,16.0918 176.2055,109.5639 414.5351,164.9114 714.9883,166.041 143.4493,0 234.3754,-47.4395 272.7793,-142.3184 z m -315.7012,-78.668 v 0.4648 h 27.6719 c -23.72,79.0642 -23.72,157.5668 0,235.5059 h -27.6719 c -193.3375,0 -378.9555,-33.965 -556.8555,-101.8926 -6.7772,-4.5184 -10.166,-9.8831 -10.166,-16.0937 0,-6.2152 3.3888,-11.5798 10.166,-16.0938 177.8998,-67.9276 363.5181,-101.8906 556.8555,-101.8906 z m 93.75,7.4766 c 84.7143,5.648 137.237,42.9207 157.5684,111.8183 -20.3314,67.7725 -72.8541,105.0466 -157.5684,111.8242 -27.1086,-74.5501 -27.1086,-149.0968 0,-223.6425 z"
     inkscape:connector-curvature="0" />
</svg>
